<?xml version="1.0" standalone="no"?>
<!DOCTYPE svg PUBLIC "-//W3C//DTD SVG 1.1//EN" "http://www.w3.org/Graphics/SVG/1.1/DTD/svg11.dtd">
<svg xmlns="http://www.w3.org/2000/svg">
<defs >
<font id="Comfortaa" horiz-adv-x="1003" ><font-face
    font-family="Comfortaa"
    units-per-em="2048"
    panose-1="2 15 3 3 7 2 0 6 0 3"
    ascent="2081"
    descent="-482"
    alphabetic="0" />
<glyph unicode=" " glyph-name="space" horiz-adv-x="560" />
<glyph unicode="!" glyph-name="exclam" horiz-adv-x="400" d="M307 104Q307 60 277 30Q248 0 204 0Q160 0 130 30Q100 60 100 104Q100 148 130 177Q160 207 204 207Q248 207 277 177Q307 148 307 104ZM141 1539Q141 1565 159 1583T204 1601Q230 1601 248 1583T266
1539V393Q266 367 248 351Q230 332 204 332Q178 332 160 351Q141 368 141 393V1539Z" />
<glyph unicode="&quot;" glyph-name="quotedbl" horiz-adv-x="560" d="M202 1227Q202 1210 190 1198T161 1186Q144 1186 132 1198T119 1227L99 1539Q99 1565 117 1583T161 1601Q187 1601 205 1583T223 1539L202 1227ZM451 1227Q451 1210 439 1198T410 1186Q393
1186 381 1198T368 1227L347 1539Q347 1565 365 1583T410 1601Q436 1601 454 1583T472 1539L451 1227Z" />
<glyph unicode="#" glyph-name="numbersign" horiz-adv-x="1280" d="M371 65Q366 39 344 20T294 0Q271 0 257 17T246 58L324 498H133Q109 498 97 512T85 544Q86 583 110 602T162 622H346L411 996H221Q196 996 183 1013T173 1055V1054Q178 1081 200 1100T251 1120H434L510
1552Q515 1579 537 1598T587 1618Q610 1618 624 1601T634 1559L558 1120H849L925 1552Q930 1579 952 1598T1001 1618Q1025 1618 1039 1601T1049 1559L972 1120H1163Q1187 1120 1199 1105T1211 1073Q1209 1035 1185 1016T1133 996H950L884 622H1075Q1098 622 1112
605T1123 564Q1117 537 1095 518T1046 498H862L786 65Q780 39 758 20T709 0Q686 0 672 17T661 58L739 498H448L371 65ZM535 996L469 622H761L826 996H535Z" />
<glyph unicode="$" glyph-name="dollar" horiz-adv-x="1060" d="M509 1Q298 0 145 169Q125 191 108 216Q94 234 94 256Q94 282 112 300T156 318Q190 318 209 290Q222 270 240 250Q286 196 354 163T509 123V832Q360 861 269 967Q224 1021 200 1085T177 1254Q184
1334 219 1402T315 1522Q333 1536 355 1549T403 1575T456 1596T509 1612V1721Q509 1747 527 1765T571 1784Q597 1784 615 1766T633 1721V1611Q708 1597 766 1563T871 1477Q894 1453 909 1424Q918 1407 918 1390Q918 1364 900 1346T856 1327Q831 1327 817 1343Q807
1354 796 1369T775 1396Q727 1453 633 1485V939Q705 919 766 880T874 786Q927 720 956 643T986 484Q979 340 936 259T818 114Q739 49 633 16V-104Q633 -130 615 -148T571 -166Q545 -166 527 -148T509 -104V1ZM509 1486Q474 1475 445 1460T396 1427Q356 1391 331
1344T301 1244Q297 1190 314 1140T366 1047Q389 1019 425 997T509 958V1486ZM633 145Q690 167 737 209Q788 255 822 317T861 481Q861 610 778 706Q752 736 716 761T633 810V145Z" />
<glyph unicode="%" glyph-name="percent" horiz-adv-x="1760" d="M876 1208Q876 1043 760 929Q646 814 481 814Q317 814 203 929Q87 1043 87 1208Q87 1371 203 1487Q318 1602 481 1602Q645 1602 760 1487Q876 1371 876 1208ZM917 394Q917 558 1032 673Q1147 788
1311 788Q1475 788 1590 673Q1705 558 1705 394Q1705 230 1590 115Q1475 0 1311 0Q1147 0 1032 115Q917 230 917 394ZM481 1477Q371 1477 291 1397Q212 1319 212 1208Q212 1096 291 1017Q370 938 481 938Q592 938 671 1017Q751 1097 751 1208Q751 1319 671 1397Q591
1477 481 1477ZM1311 664Q1200 664 1120 584Q1041 505 1041 394Q1041 282 1120 203Q1199 124 1311 124Q1422 124 1501 203Q1581 283 1581 394Q1581 504 1501 584Q1421 664 1311 664ZM316 0Q290 0 272 18T253 62Q253 86 269 105L1425 1574Q1437 1587 1449 1594T1477
1601Q1503 1601 1521 1583T1539 1539Q1539 1517 1527 1501L364 23Q342 0 316 0Z" />
<glyph unicode="&amp;" glyph-name="ampersand" horiz-adv-x="1440" d="M506 953L643 1061Q700 1106 727 1154T754 1255Q754 1346 687 1415Q620 1481 526 1481Q431 1481 364 1415Q298 1347 298 1255Q298 1162 364 1095L506 953ZM904 382L492 793L360 693Q215 581
215 452Q215 305 306 214Q398 123 526 123Q654 123 746 214L904 382ZM591 869L991 472L1189 682Q1205 699 1231 699Q1257 699 1275 682T1293 638Q1293 615 1279 596L1078 386L1360 103Q1376 86 1376 62Q1376 36 1358 18T1314 0Q1289 0 1271 17L992 295L833 127H834Q706
0 526 0Q346 0 218 127Q90 254 90 452Q90 540 139 622T278 777L407 877L276 1007Q173 1112 173 1255Q173 1400 276 1502Q379 1605 526 1605Q672 1605 775 1502Q879 1401 879 1255Q879 1101 734 977L735 978L591 869Z" />
<glyph unicode="&apos;" glyph-name="quotesingle" horiz-adv-x="320" d="M204 1228Q204 1211 192 1199T163 1187Q146 1187 134 1199T121 1228L101 1540Q101 1566 119 1584T163 1602Q189 1602 207 1584T225 1540L204 1228Z" />
<glyph unicode="(" glyph-name="parenleft" horiz-adv-x="560" d="M345 1565Q351 1579 360 1588Q378 1606 405 1606Q430 1606 447 1590T465 1549Q464 1530 454 1509Q219 1035 219 564Q219 324 278 88T456 -386Q466 -405 466 -422Q466 -446 448 -463T405 -480Q379
-480 361 -462Q352 -451 344 -437Q220 -184 160 65T99 565Q99 816 159 1064T345 1565Z" />
<glyph unicode=")" glyph-name="parenright" horiz-adv-x="560" d="M344 1312T405 1064T466 565Q466 314 405 65T220 -437Q212 -451 203 -462Q186 -480 160 -480Q134 -480 117 -463T99 -422Q99 -405 109 -386Q227 -148 286 88T345 564Q345 1035 111 1509Q101 1530
100 1549Q101 1573 117 1589T160 1606Q187 1606 204 1588Q213 1579 219 1565Q344 1312 405 1064Z" />
<glyph unicode="*" glyph-name="asterisk" horiz-adv-x="780" d="M424 1289L586 1149Q595 1142 601 1133Q607 1125 611 1114T615 1095Q615 1081 609 1068T591 1046Q571 1032 543 1033Q518 1036 503 1056Q497 1064 492 1074L399 1269L304 1075Q299 1063 292 1054Q276
1032 244 1032Q222 1033 206 1046Q183 1064 183 1095Q183 1117 196 1133L212 1149L374 1288L166 1310Q152 1311 143 1315Q118 1326 108 1346Q102 1360 102 1374Q103 1385 106 1394Q114 1419 137 1429T183 1432Q196 1427 204 1421L381 1318L339 1518Q336 1528 336
1540Q336 1566 354 1584T398 1602Q424 1602 442 1584T460 1540Q460 1528 457 1518L413 1317L593 1422Q603 1428 612 1432Q637 1440 660 1430T692 1394Q696 1383 696 1373Q696 1358 690 1346Q679 1322 655 1315Q645 1311 632 1310L424 1289Z" />
<glyph unicode="+" glyph-name="plus" horiz-adv-x="1120" d="M494 1224Q494 1250 512 1268T556 1286Q582 1286 600 1268T619 1224V871H971Q997 871 1015 853T1033 809Q1033 783 1015 765T971 747H619V394Q619 368 601 350T556 332Q530 332 512 350T494 394V747H142Q116
747 98 765T79 809Q79 835 97 853T142 871H494V1224Z" />
<glyph unicode="," glyph-name="comma" horiz-adv-x="400" d="M130 30Q100 60 100 104Q100 148 130 177Q160 207 204 207Q248 207 277 177Q307 148 307 104Q307 -94 220 -226Q206 -249 183 -249Q166 -249 154 -237T141 -207Q142 -191 153 -178Q190 -137 190 -91Q190
-63 176 -33T130 30Z" />
<glyph unicode="-" glyph-name="hyphen" horiz-adv-x="800" d="M142 498Q116 498 98 516T79 560Q79 586 97 604T142 622H639Q665 622 683 604T702 560Q702 534 684 516T639 498H142Z" />
<glyph unicode="." glyph-name="period" horiz-adv-x="400" d="M307 104Q307 60 277 30Q248 0 204 0Q160 0 130 30Q100 60 100 104Q100 148 130 177Q160 207 204 207Q248 207 277 177Q307 148 307 104Z" />
<glyph unicode="/" glyph-name="slash" horiz-adv-x="960" d="M763 1601Q782 1618 808 1618Q834 1618 852 1600T870 1556Q870 1541 864 1528L200 -132Q196 -142 190 -148Q170 -166 144 -166Q118 -166 100 -148T82 -104Q82 -88 87 -77L752 1584Q756 1594 763 1601Z" />
<glyph unicode="0" glyph-name="zero" horiz-adv-x="1120" d="M80 803Q80 1041 132 1215T278 1491Q335 1544 406 1574T557 1605Q638 1605 708 1575T836 1491Q931 1389 982 1215T1034 803Q1034 564 983 390T836 114Q779 61 709 31T557 0Q477 0 406 30T278 114Q184
216 132 390T80 803ZM557 1481Q445 1481 366 1401Q205 1221 205 803Q205 383 366 202Q444 123 557 123Q668 123 748 202Q910 384 910 803Q910 1220 748 1401Q667 1481 557 1481Z" />
<glyph unicode="1" glyph-name="one" horiz-adv-x="560" d="M453 62Q453 36 435 18T391 0Q365 0 347 18T328 62V1452L167 1400Q152 1394 142 1394Q116 1394 98 1412T80 1457Q80 1483 98 1501Q106 1509 118 1515L367 1598Q381 1602 391 1602Q417 1602 435 1584T453
1540V62Z" />
<glyph unicode="2" glyph-name="two" horiz-adv-x="1120" d="M972 124Q998 124 1016 106T1034 62Q1034 36 1016 18T972 0H143Q117 0 99 18T80 62Q80 86 99 107L807 876Q856 927 883 990T910 1125Q910 1271 806 1374Q704 1477 557 1477Q411 1477 307 1374Q205 1270
205 1125Q205 1099 187 1081T143 1063Q117 1063 99 1081T80 1125Q80 1321 219 1462Q361 1602 557 1602Q756 1602 894 1462Q1034 1323 1034 1125Q1034 926 893 786L284 124H972Z" />
<glyph unicode="3" glyph-name="three" horiz-adv-x="1120" d="M557 822Q531 822 513 839T495 883Q495 909 513 927T557 945Q668 945 747 1023Q827 1102 827 1212Q827 1322 747 1399Q667 1478 557 1478Q445 1478 367 1399Q288 1322 288 1212Q288 1186 270 1168T226
1150Q200 1150 182 1168T163 1212Q163 1294 192 1362T278 1488Q336 1545 405 1573T557 1602Q721 1602 836 1488Q951 1374 951 1212Q951 1041 786 889Q821 868 848 848T895 807Q1034 669 1034 472Q1034 275 894 138Q755 0 557 0Q361 0 219 138Q80 277 80 472Q80
498 98 516T143 534Q169 534 187 516T205 472Q205 330 307 225Q361 174 422 149T557 123Q703 123 806 225Q910 328 910 472Q910 617 806 719Q704 822 557 822Z" />
<glyph unicode="4" glyph-name="four" horiz-adv-x="1280" d="M827 522V1338L262 522H827ZM142 398Q116 398 98 416T80 460Q80 480 91 496L838 1576Q855 1601 889 1601Q915 1601 933 1583T951 1539V522H1138Q1164 522 1182 504T1200 460Q1200 434 1182 416T1138
398H951V62Q951 36 933 18T889 0Q863 0 845 18T827 62V398H142Z" />
<glyph unicode="5" glyph-name="five" horiz-adv-x="1200" d="M971 1602Q997 1602 1015 1584T1034 1540Q1034 1514 1016 1496T971 1477H287V1037H598Q814 1037 964 885Q1117 733 1117 519Q1117 304 964 151Q813 0 598 0Q385 0 231 151Q80 303 80 519Q80 545 98
563T142 581Q168 581 186 563T204 519Q204 355 319 240Q438 124 598 124Q760 124 876 240Q992 355 992 519Q992 683 876 796Q760 913 598 913H225Q199 913 181 931T163 975V1540Q163 1566 181 1584T225 1602H971Z" />
<glyph unicode="6" glyph-name="six" horiz-adv-x="1120" d="M424 939Q496 954 557 954Q756 954 894 814Q1034 677 1034 477Q1034 278 894 139Q755 0 557 0Q361 0 219 139Q80 280 80 477Q80 622 157 737L666 1566Q672 1576 678 1583Q696 1601 723 1601Q749 1601
767 1583T786 1539Q786 1522 777 1506L424 939ZM910 477Q910 623 806 726Q704 830 557 830Q413 830 307 726Q205 622 205 477Q205 333 307 227Q361 176 422 150T557 124Q703 124 806 227Q910 331 910 477Z" />
<glyph unicode="7" glyph-name="seven" horiz-adv-x="1120" d="M188 19Q169 0 143 0Q117 0 99 18T80 62Q80 80 95 104L867 1477H143Q117 1477 99 1495T80 1540Q80 1566 98 1584T143 1602H972Q998 1602 1016 1584T1034 1540Q1034 1521 1025 1505L200 36Q194 25 188 19Z" />
<glyph unicode="8" glyph-name="eight" horiz-adv-x="1120" d="M557 1478Q445 1478 367 1399Q288 1322 288 1212Q288 1101 367 1023Q445 945 557 945Q668 945 747 1023Q827 1102 827 1212Q827 1322 747 1399Q667 1478 557 1478ZM557 822Q413 822 307 719Q205 616
205 472Q205 330 307 225Q416 123 557 123Q703 123 806 225Q910 328 910 472Q910 617 806 719Q704 822 557 822ZM300 915T278 936Q163 1050 163 1212Q163 1294 192 1362T278 1488Q336 1545 405 1573T557 1602Q721 1602 836 1488Q951 1374 951 1212Q951 1049 836
936Q818 919 787 892Q821 868 848 848T895 807Q1034 669 1034 472Q1034 275 894 138Q755 0 557 0Q361 0 219 138Q80 277 80 472Q80 668 220 807Q261 848 331 892Q300 915 278 936Z" />
<glyph unicode="9" glyph-name="nine" horiz-adv-x="1120" d="M691 662Q627 647 557 647Q359 647 219 786Q80 927 80 1124Q80 1320 219 1461Q361 1601 557 1601Q756 1601 894 1461Q1034 1322 1034 1124Q1034 979 958 862L448 35Q443 26 436 19Q418 0 391 0Q365
0 347 18T329 62Q329 78 338 94L691 662ZM205 1124Q205 979 307 874Q413 771 557 771Q704 771 806 874Q910 977 910 1124Q910 1270 806 1373Q704 1476 557 1476Q411 1476 307 1373Q205 1269 205 1124Z" />
<glyph unicode=":" glyph-name="colon" horiz-adv-x="400" d="M307 104Q307 60 277 30Q248 0 204 0Q160 0 130 30Q100 60 100 104Q100 148 130 177Q160 207 204 207Q248 207 277 177Q307 148 307 104ZM307 1017Q307 972 277 944Q248 914 204 914Q160 914 130 944Q100
972 100 1017Q100 1061 130 1091Q160 1121 204 1121Q248 1121 277 1091Q307 1061 307 1017Z" />
<glyph unicode=";" glyph-name="semicolon" horiz-adv-x="400" d="M307 1017Q307 972 277 944Q248 914 204 914Q160 914 130 944Q100 972 100 1017Q100 1061 130 1091Q160 1121 204 1121Q248 1121 277 1091Q307 1061 307 1017ZM130 30Q100 60 100 104Q100 148
130 177Q160 207 204 207Q248 207 277 177Q307 148 307 104Q307 -93 220 -225Q205 -249 183 -249Q166 -249 154 -237T141 -207Q141 -191 153 -178Q190 -137 190 -91Q190 -63 176 -33T130 30Z" />
<glyph unicode="&lt;" glyph-name="less" horiz-adv-x="1120" d="M940 1279Q954 1286 971 1286Q997 1286 1015 1268T1033 1224Q1033 1190 1000 1169H1001L262 726L1001 283Q1033 262 1033 228Q1033 202 1015 184T971 166Q951 166 940 173L115 669Q79 692 79 726Q79
758 115 783L940 1279Z" />
<glyph unicode="=" glyph-name="equal" horiz-adv-x="1040" d="M143 913Q117 913 99 931T81 975Q81 1001 99 1019T143 1037H890Q916 1037 934 1019T952 975Q952 949 934 931T890 913H143ZM890 539Q916 539 934 521T952 477Q952 451 934 433T890 415L143 414Q117
415 99 433T81 477Q81 503 99 521T143 539H890Z" />
<glyph unicode="&gt;" glyph-name="greater" horiz-adv-x="1120" d="M998 783Q1034 758 1034 726Q1034 692 998 669L173 173Q162 166 142 166Q116 166 98 184T80 228Q80 262 112 283L851 726L112 1169H113Q80 1190 80 1224Q80 1250 98 1268T142 1286Q159 1286
173 1279L998 783Z" />
<glyph unicode="?" glyph-name="question" horiz-adv-x="1120" d="M205 1127Q205 1101 187 1084T143 1066Q117 1066 99 1083T80 1127Q80 1322 219 1463Q361 1602 557 1602Q756 1602 894 1463Q1034 1324 1034 1127Q1034 929 894 791V792L723 633Q620 530 620 384Q620
358 602 340T557 322Q531 322 513 340T495 384Q495 581 635 720V719L806 877Q910 980 910 1127Q910 1273 806 1375Q704 1478 557 1478Q411 1478 307 1375Q205 1272 205 1127ZM661 104Q661 60 631 30Q601 0 557 0Q512 0 484 30Q454 60 454 104Q454 148 484 177Q512
207 557 207Q601 207 631 177Q661 148 661 104Z" />
<glyph unicode="@" glyph-name="at" horiz-adv-x="2240" d="M1123 991Q946 991 820 865Q694 739 694 562Q694 385 820 259Q946 133 1123 133Q1300 133 1426 259Q1551 384 1551 562Q1551 740 1426 865Q1300 991 1123 991ZM1551 219Q1536 196 1512 173Q1351 12 1123
12Q893 12 734 173Q573 334 573 562Q573 790 734 951Q893 1112 1123 1112Q1351 1112 1512 951Q1673 790 1673 562V154Q1673 52 1775 52Q2040 52 2040 562Q2040 944 1771 1211Q1505 1479 1123 1479Q743 1479 473 1211Q205 940 205 562Q205 184 473 -87Q743 -355
1123 -355Q1225 -355 1318 -336T1500 -276Q1516 -269 1533 -269Q1558 -269 1576 -286T1594 -330Q1594 -357 1576 -373Q1566 -383 1554 -389Q1360 -478 1123 -478Q691 -478 387 -173Q83 131 83 562Q83 992 387 1297Q691 1602 1123 1602Q1553 1602 1857 1297Q2163
992 2163 562Q2163 -70 1775 -70Q1551 -70 1551 154V219Z" />
<glyph unicode="A" glyph-name="A" horiz-adv-x="1440" d="M408 574L199 38Q193 24 185 16Q168 0 142 0Q116 0 98 18T80 62Q80 75 86 89L657 1556Q663 1572 673 1583Q690 1600 716 1600Q742 1600 760 1582Q770 1572 776 1556L1346 89Q1352 75 1352 62Q1352 36
1334 18T1291 0Q1265 0 1248 15Q1239 24 1233 38L1025 574H408ZM977 697L716 1369L456 697H977Z" />
<glyph unicode="B" glyph-name="B" horiz-adv-x="1120" d="M203 1477V944H470Q581 944 658 1022Q737 1101 737 1210Q737 1319 658 1398Q579 1477 470 1477H203ZM203 821V123H552Q697 123 798 225Q901 327 901 472Q901 616 798 718Q698 821 552 821H203ZM470 1600Q632
1600 746 1486Q860 1372 860 1210Q860 1048 726 914Q826 866 887 806Q1024 667 1024 472Q1024 276 886 137Q747 0 552 0H142Q116 0 98 18T80 62V1538Q80 1564 98 1582T142 1600H470Z" />
<glyph unicode="C" glyph-name="C" horiz-adv-x="1480" d="M1337 281Q1363 281 1381 263T1399 219Q1399 194 1384 178Q1272 91 1146 46T880 0Q717 0 574 61T314 234Q202 351 141 494T80 800Q80 1131 314 1365Q549 1600 880 1600Q1165 1600 1387 1418Q1405 1400
1405 1374Q1405 1349 1387 1331T1344 1313Q1318 1313 1293 1337Q1120 1477 880 1477Q600 1477 401 1278Q203 1080 203 800Q203 519 401 321Q599 123 880 123Q1122 123 1304 272Q1317 281 1337 281Z" />
<glyph unicode="D" glyph-name="D" horiz-adv-x="1360" d="M470 123Q748 123 948 321Q1147 520 1147 800Q1147 1079 948 1278Q747 1477 470 1477H203V123H470ZM470 1600Q801 1600 1035 1365Q1270 1131 1270 800Q1270 469 1035 234Q801 0 470 0H141Q116 0 98 18T80
62V1538Q80 1564 98 1582T141 1600H470Z" />
<glyph unicode="E" glyph-name="E" horiz-adv-x="1280" d="M1127 1600Q1152 1600 1170 1582T1188 1538Q1188 1513 1170 1495T1127 1477H203V862H880Q906 862 924 844T942 800Q942 774 924 756T880 738H203V123H1127Q1152 123 1170 105T1188 62Q1188 36 1170 18T1127
0H142Q116 0 98 18T80 62V1538Q80 1564 98 1582T142 1600H1127Z" />
<glyph unicode="F" glyph-name="F" horiz-adv-x="1280" d="M1127 1600Q1152 1600 1170 1582T1188 1538Q1188 1513 1170 1495T1127 1477H203V862H880Q906 862 924 844T942 800Q942 774 924 756T880 738H203V62Q203 36 186 18T142 0Q116 0 98 18T80 62V1538Q80 1564
98 1582T142 1600H1127Z" />
<glyph unicode="G" glyph-name="G" horiz-adv-x="1500" d="M1399 219Q1399 192 1384 178Q1272 91 1146 46T880 0Q717 0 574 61T314 234Q202 351 141 494T80 800Q80 1131 314 1365Q549 1600 880 1600Q1165 1600 1387 1418Q1405 1400 1405 1374Q1405 1349 1387 1331T1344
1313Q1318 1313 1293 1337Q1120 1477 880 1477Q600 1477 401 1278Q203 1080 203 800Q203 519 401 321Q599 123 880 123Q1100 123 1276 250V656H931Q905 656 888 674T870 718Q870 744 887 761T931 779H1338Q1362 779 1382 761Q1399 742 1399 718V219Z" />
<glyph unicode="H" glyph-name="H" horiz-adv-x="1280" d="M80 1538Q80 1564 98 1582T142 1600Q168 1600 185 1582T203 1538V862H1065V1538Q1065 1564 1083 1582T1127 1600Q1152 1600 1170 1582T1188 1538V62Q1188 36 1170 18T1127 0Q1101 0 1083 18T1065 62V738H203V62Q203
36 186 18T142 0Q116 0 98 18T80 62V1538Z" />
<glyph unicode="I" glyph-name="I" horiz-adv-x="480" d="M178 1538Q178 1564 195 1582T239 1600Q265 1600 283 1582T301 1538V62Q301 36 283 18T239 0Q213 0 196 18T178 62V1538Z" />
<glyph unicode="J" glyph-name="J" horiz-adv-x="1120" d="M80 472Q80 498 98 515T142 533Q168 533 185 516T203 472Q203 328 305 225Q410 123 552 123Q697 123 798 225Q901 327 901 472V1538Q901 1564 919 1582T962 1600Q988 1600 1006 1582T1024 1538V472Q1024
276 886 137Q747 0 552 0Q357 0 218 137Q80 278 80 472Z" />
<glyph unicode="K" glyph-name="K" horiz-adv-x="1200" d="M80 1538Q80 1564 98 1582T141 1600Q167 1600 185 1582T203 1538V786L998 1581Q1017 1600 1044 1600Q1070 1600 1088 1582T1106 1538Q1106 1515 1088 1494L499 906L1094 98Q1105 82 1106 65Q1106 32 1081
12Q1064 0 1046 0Q1012 0 993 26L410 816L203 609V62Q203 36 185 18T141 0Q116 0 98 18T80 62V1538Z" />
<glyph unicode="L" glyph-name="L" horiz-adv-x="1200" d="M80 1538Q80 1564 98 1582T141 1600Q167 1600 185 1582T203 1538V123H1044Q1070 123 1088 105T1106 62Q1106 36 1088 18T1044 0H141Q116 0 98 18T80 62V1538Z" />
<glyph unicode="M" glyph-name="M" horiz-adv-x="1760" d="M203 1278V62Q203 36 186 18T142 0Q116 0 98 18T80 62V1538Q80 1564 98 1582T142 1600Q179 1600 196 1568L880 199L1564 1568Q1582 1600 1619 1600Q1645 1600 1662 1582T1680 1538V62Q1680 36 1663 18T1619
0Q1593 0 1575 18T1557 62V1278L933 29Q915 0 880 0Q840 0 823 39L203 1278Z" />
<glyph unicode="N" glyph-name="N" horiz-adv-x="1440" d="M203 62Q203 36 186 18T142 0Q116 0 98 18T80 62V1538Q80 1564 98 1582T142 1600Q171 1600 189 1578L1229 241V1538Q1229 1564 1247 1582T1291 1600Q1316 1600 1334 1582T1352 1538V62Q1352 36 1334 18T1291
0Q1261 0 1245 18L203 1358V62Z" />
<glyph unicode="O" glyph-name="O" horiz-adv-x="1760" d="M880 1477Q602 1477 401 1278Q203 1080 203 800Q203 519 401 321Q600 123 880 123Q1160 123 1358 321Q1557 519 1557 800Q1557 1080 1358 1278Q1159 1477 880 1477ZM1680 800Q1680 469 1445 234Q1212
0 880 0Q717 0 574 61T314 234Q202 351 141 494T80 800Q80 1131 314 1365Q549 1600 880 1600Q1213 1600 1445 1365Q1680 1131 1680 800Z" />
<glyph unicode="P" glyph-name="P" horiz-adv-x="1080" d="M203 1477V697H469Q630 697 744 811Q859 926 859 1087Q859 1248 744 1362Q630 1477 469 1477H203ZM469 1600Q683 1600 831 1449Q982 1301 982 1087Q982 875 831 724Q681 574 469 574H203V62Q203 36 185
18T141 0Q115 0 98 18T80 62V1538Q80 1564 97 1582T141 1600H469Z" />
<glyph unicode="Q" glyph-name="Q" horiz-adv-x="1760" d="M1400 192Q1170 0 880 0Q717 0 574 61T314 234Q202 351 141 494T80 800Q80 1131 314 1365Q549 1600 880 1600Q1213 1600 1445 1365Q1680 1131 1680 800Q1680 508 1488 280L1663 105Q1680 87 1680 62Q1680
36 1663 18T1619 0Q1593 0 1574 19L1400 192ZM1123 469Q1106 487 1106 513Q1106 539 1124 556T1167 574Q1192 574 1212 557L1401 367Q1557 562 1557 800Q1557 1080 1358 1278Q1159 1477 880 1477Q602 1477 401 1278Q203 1080 203 800Q203 519 401 321Q600 123 880
123Q1118 123 1313 279L1123 469Z" />
<glyph unicode="R" glyph-name="R" horiz-adv-x="1200" d="M203 1477V779H552Q696 779 798 881Q900 983 900 1128Q900 1275 798 1374Q696 1477 552 1477H203ZM552 1600Q748 1600 885 1462Q1023 1324 1023 1128Q1023 932 886 795Q821 730 726 687L1095 95Q1106
79 1106 62Q1106 36 1088 18T1044 0Q1012 0 990 33L599 658Q578 656 552 656H203V62Q203 36 185 18T141 0Q116 0 98 18T80 62V1538Q80 1564 98 1582T141 1600H552Z" />
<glyph unicode="S" glyph-name="S" horiz-adv-x="1060" d="M80 232T80 253Q80 279 97 297T141 315Q174 315 194 287Q207 268 224 247Q269 195 333 161T493 123Q618 123 716 206Q769 252 804 316T839 475Q839 601 756 697Q710 751 650 782T519 819Q441 827 373
862T253 956Q209 1010 185 1073T161 1205Q163 1392 298 1506Q407 1600 552 1600Q720 1600 848 1461Q870 1435 886 1408Q895 1393 895 1374Q895 1349 877 1331T834 1313Q805 1313 793 1329Q777 1351 754 1379Q679 1467 573 1474Q464 1481 378 1410Q292 1338 285
1231Q281 1176 296 1127T347 1036Q383 993 428 971T528 943Q623 933 705 891T851 777Q904 712 933 636T962 479Q960 341 916 259T796 113Q662 0 494 0Q283 0 130 167Q113 186 93 215Q80 232 80 253Z" />
<glyph unicode="T" glyph-name="T" horiz-adv-x="1360" d="M142 1477Q117 1477 99 1495T81 1538Q81 1564 99 1582T142 1600H1209Q1235 1600 1253 1582T1271 1538Q1271 1513 1253 1495T1209 1477H737V62Q737 36 720 18T676 0Q650 0 632 18T614 62V1477H142Z" />
<glyph unicode="U" glyph-name="U" horiz-adv-x="1280" d="M81 1538Q81 1564 99 1582T143 1600Q169 1600 186 1582T204 1538V554Q204 375 331 249Q457 123 635 123Q814 123 940 249Q1066 375 1066 554V1538Q1066 1564 1084 1582T1128 1600Q1153 1600 1171 1582T1189
1538V554Q1189 324 1027 162Q865 0 635 0Q405 0 243 162Q162 243 122 340T81 554V1538Z" />
<glyph unicode="V" glyph-name="V" horiz-adv-x="1440" d="M760 18Q742 0 716 0Q689 0 673 18Q667 25 661 38L89 1499Q80 1522 80 1538Q80 1564 98 1582T142 1600Q185 1600 198 1565L716 231L1235 1566Q1247 1600 1291 1600Q1316 1600 1334 1582T1352 1538Q1352
1521 1343 1499L772 38Q767 25 760 18Z" />
<glyph unicode="W" glyph-name="W" horiz-adv-x="1920" d="M916 1583Q935 1600 959 1600Q985 1600 1003 1583Q1013 1572 1018 1559L1370 293L1721 1559Q1726 1573 1737 1584Q1754 1600 1780 1600Q1806 1600 1823 1582T1841 1538Q1841 1525 1836 1508L1434 54Q1428
32 1414 18Q1394 0 1370 0Q1344 0 1326 18Q1312 33 1306 53L959 1305L614 54Q607 33 593 18Q574 0 549 0Q524 0 506 18Q491 33 485 53L82 1508Q77 1525 77 1538Q77 1564 95 1582T139 1600Q165 1600 183 1583Q193 1572 197 1559L549 293L901 1560Q904 1571 916 1583Z"
/>
<glyph unicode="X" glyph-name="X" horiz-adv-x="1440" d="M716 901L1239 1573Q1262 1600 1291 1600Q1316 1600 1334 1582T1352 1538Q1352 1518 1342 1503L795 800L1339 101Q1352 85 1352 62Q1352 36 1334 18T1291 0Q1262 0 1244 21L716 698L188 21Q171 0 142
0Q116 0 98 18T80 62Q80 84 94 101L637 800L91 1504Q80 1517 80 1538Q80 1564 98 1582T142 1600Q172 1600 193 1573L716 901Z" />
<glyph unicode="Y" glyph-name="Y" horiz-adv-x="1280" d="M697 62Q697 36 679 18T635 0Q609 0 592 18T574 62V782L91 1504Q81 1520 81 1538Q81 1564 99 1582T143 1600Q173 1600 192 1575L635 911L1078 1575Q1096 1600 1128 1600Q1153 1600 1171 1582T1189 1538Q1189
1518 1179 1504L697 782V62Z" />
<glyph unicode="Z" glyph-name="Z" horiz-adv-x="1440" d="M142 1477Q116 1477 98 1495T80 1538Q80 1564 98 1582T142 1600H1291Q1316 1600 1334 1582T1352 1538Q1352 1518 1342 1504L268 123H1291Q1316 123 1334 105T1352 62Q1352 36 1334 18T1291 0H142Q116
0 98 18T80 62Q80 82 94 101L1164 1477H142Z" />
<glyph unicode="[" glyph-name="bracketleft" horiz-adv-x="640" d="M492 1602Q518 1602 536 1584T554 1540Q554 1514 536 1496T492 1477H222V-355H492Q518 -355 536 -373T554 -418Q554 -444 536 -462T492 -480H160Q134 -480 116 -462T98 -418V1540Q98 1566 116
1584T160 1602H492Z" />
<glyph unicode="\" glyph-name="backslash" horiz-adv-x="960" d="M877 -77Q883 -91 883 -104Q883 -130 865 -148T821 -166Q795 -166 777 -150Q769 -141 765 -132L100 1511Q95 1524 95 1539Q95 1565 113 1583T157 1601Q183 1601 202 1583Q210 1575 213 1567L877 -77Z" />
<glyph unicode="]" glyph-name="bracketright" horiz-adv-x="640" d="M554 -418Q554 -444 536 -462T492 -480H160Q134 -480 116 -462T98 -418Q98 -392 116 -374T160 -355H430V1477H160Q134 1477 116 1495T98 1540Q98 1566 116 1584T160 1602H492Q518 1602 536
1584T554 1540V-418Z" />
<glyph unicode="^" glyph-name="asciicircum" horiz-adv-x="960" d="M489 1428L206 1002Q187 980 157 980Q131 980 113 998T95 1042Q95 1060 103 1074L439 1577Q448 1588 460 1595T489 1602Q506 1602 518 1595T539 1577L875 1074Q883 1060 883 1042Q883 1016 865
998T821 980Q789 980 772 1002L489 1428Z" />
<glyph unicode="_" glyph-name="underscore" horiz-adv-x="960" d="M-9 -126Q-35 -126 -53 -108T-71 -64Q-71 -38 -53 -20T-9 -1H987Q1013 -1 1031 -19T1049 -64Q1049 -90 1031 -108T987 -126H-9Z" />
<glyph unicode="`" glyph-name="grave" horiz-adv-x="560" d="M99 1539Q99 1565 117 1583T161 1601Q187 1601 205 1583L457 1331Q472 1314 472 1290Q472 1264 454 1246T410 1227Q386 1227 367 1243L115 1495Q107 1504 103 1515T99 1539Z" />
<glyph unicode="a" glyph-name="a" horiz-adv-x="1280" d="M640 996Q460 996 332 868Q204 740 204 560Q204 380 332 252Q460 124 640 124Q820 124 948 252Q1075 379 1075 560Q1075 741 948 868Q820 996 640 996ZM1075 203Q873 0 640 0Q408 0 244 164Q80 328 80
560Q80 792 244 956Q408 1120 640 1120Q872 1120 1036 956Q1200 792 1200 560V62Q1200 36 1182 18T1138 0Q1112 0 1094 18T1075 62V203Z" />
<glyph unicode="b" glyph-name="b" horiz-adv-x="1280" d="M640 124Q820 124 948 252Q1075 379 1075 560Q1075 741 948 868Q820 996 640 996Q460 996 332 868Q204 740 204 560Q204 380 332 252Q460 124 640 124ZM204 917L244 956Q408 1120 640 1120Q872 1120 1036
956Q1200 792 1200 560Q1200 328 1036 164Q872 0 640 0Q408 0 244 164Q80 328 80 560V1538Q80 1564 98 1582T142 1600Q168 1600 186 1582T204 1538V917Z" />
<glyph unicode="c" glyph-name="c" horiz-adv-x="1120" d="M962 243Q988 243 1006 225T1024 180Q1024 154 1005 135Q929 70 836 35T640 0Q408 0 244 164Q80 328 80 560Q80 792 244 956Q408 1120 640 1120Q743 1120 836 1085T1005 985Q1014 976 1020 963T1027 936Q1027
910 1009 892T965 874Q941 874 925 889Q803 996 640 996Q460 996 332 868Q205 741 205 560Q205 379 332 252Q460 124 640 124Q719 124 792 153T925 231Q940 243 962 243Z" />
<glyph unicode="d" glyph-name="d" horiz-adv-x="1280" d="M1075 560Q1075 741 948 868Q820 996 640 996Q460 996 332 868Q204 740 204 560Q204 380 332 252Q460 124 640 124Q820 124 948 252Q1075 379 1075 560ZM1075 1538Q1075 1564 1093 1582T1138 1600Q1164
1600 1182 1582T1200 1538V560Q1200 328 1036 164Q872 0 640 0Q408 0 244 164Q80 328 80 560Q80 792 244 956Q408 1120 640 1120Q872 1120 1036 956L1075 917V1538Z" />
<glyph unicode="e" glyph-name="e" horiz-adv-x="1280" d="M1073 622Q1045 771 948 868Q820 996 640 996Q460 996 332 868Q236 772 206 622H1073ZM959 241Q985 241 1003 223T1021 178Q1021 152 1005 135Q849 0 640 0Q408 0 244 164Q80 328 80 560Q80 792 244 956Q408
1120 640 1120Q872 1120 1036 956Q1200 792 1200 560Q1200 534 1182 516T1138 498H206Q236 348 332 252Q460 124 640 124Q722 124 792 150T920 227Q937 241 959 241Z" />
<glyph unicode="f" glyph-name="f" horiz-adv-x="800" d="M727 1600Q753 1600 771 1582T789 1538Q789 1512 771 1494T727 1475Q374 1475 374 1123V1058H645Q671 1058 689 1040T707 996Q707 970 689 952T645 933H374V62Q374 36 356 18T312 0Q286 0 268 18T249 62V933H146Q120
933 102 951T84 996Q84 1022 102 1040T146 1058H249V1123Q249 1600 727 1600Z" />
<glyph unicode="g" glyph-name="g" horiz-adv-x="1280" d="M640 996Q460 996 332 869Q204 741 204 561Q204 382 332 254Q460 126 640 126Q820 126 948 254Q1075 381 1075 561Q1075 742 948 869Q820 996 640 996ZM1075 205Q892 3 640 3Q408 3 244 166Q80 330 80
561Q80 793 244 956Q408 1120 640 1120Q872 1120 1036 956Q1200 793 1200 561V-5Q1200 -177 1075 -304Q899 -480 649 -480Q399 -480 224 -304Q159 -242 119 -169Q108 -150 108 -132Q108 -106 126 -88T170 -70Q196 -70 215 -89Q223 -96 229 -108Q263 -168 312 -217Q382
-287 466 -321T649 -356Q847 -356 987 -216Q1075 -110 1075 -5V205Z" />
<glyph unicode="h" glyph-name="h" horiz-adv-x="1200" d="M81 1540Q81 1566 99 1584T143 1602Q169 1602 187 1584T205 1540V942Q389 1120 599 1120Q815 1120 965 968Q1118 816 1118 601V62Q1118 36 1100 18T1055 0Q1029 0 1011 18T993 62V601Q993 766 877 879Q761
996 599 996Q437 996 320 879Q205 765 205 601V62Q205 36 187 18T143 0Q117 0 99 18T81 62V1540Z" />
<glyph unicode="i" glyph-name="i" horiz-adv-x="480" d="M315 1390Q315 1355 291 1331T232 1307Q198 1307 174 1331T149 1390Q149 1424 173 1448T232 1473Q267 1473 291 1449T315 1390ZM170 1058Q170 1084 188 1102T232 1120Q258 1120 276 1102T295 1058V62Q295
36 277 18T232 0Q206 0 188 18T170 62V1058Z" />
<glyph unicode="j" glyph-name="j" horiz-adv-x="656" d="M563 1390Q563 1355 539 1331T480 1307Q446 1307 422 1331T397 1390Q397 1424 421 1448T480 1473Q515 1473 539 1449T563 1390ZM418 1058Q418 1084 436 1102T480 1120Q506 1120 524 1102T543 1058V-3Q543
-200 403 -340Q263 -480 66 -480Q40 -480 22 -462T3 -418Q3 -392 21 -374T66 -355Q212 -355 314 -252Q418 -149 418 -3V1058Z" />
<glyph unicode="k" glyph-name="k" horiz-adv-x="1120" d="M206 634L940 1111Q954 1120 973 1120Q999 1120 1017 1102T1035 1058Q1035 1026 1015 1011L509 680L1018 106Q1035 88 1035 62Q1035 36 1017 18T973 0Q947 0 928 20L401 612L206 485V62Q206 36 188 18T144
0Q118 0 100 18T81 62V1540Q81 1566 99 1584T144 1602Q170 1602 188 1584T206 1540V634Z" />
<glyph unicode="l" glyph-name="l" horiz-adv-x="480" d="M87 1540Q87 1566 105 1584T149 1602Q175 1602 193 1584T212 1540V124H315Q341 124 359 106T378 62Q378 36 360 18T315 0H149Q123 0 105 18T87 62V1540Z" />
<glyph unicode="m" glyph-name="m" horiz-adv-x="1760" d="M200 62Q200 36 182 18T138 0Q112 0 94 18T75 62V1058Q75 1084 93 1102T138 1120Q164 1120 182 1102T200 1058V991Q352 1120 511 1120Q691 1120 819 992Q850 960 884 914Q918 960 950 992Q1078 1120 1258
1120Q1438 1120 1566 992Q1693 865 1693 684V62Q1693 36 1675 18T1631 0Q1605 0 1587 18T1569 62V684Q1569 813 1477 904Q1385 996 1258 996Q1130 996 1038 904Q947 813 947 684V62Q947 36 929 18T884 0Q858 0 840 18T822 62V684Q822 813 731 904Q639 996 511 996Q383
996 291 904Q200 813 200 684V62Z" />
<glyph unicode="n" glyph-name="n" horiz-adv-x="1200" d="M81 1058Q81 1084 99 1102T143 1120Q169 1120 187 1102T205 1058V942Q389 1120 599 1120Q815 1120 965 968Q1118 816 1118 601V62Q1118 36 1100 18T1055 0Q1029 0 1011 18T993 62V601Q993 766 877 879Q761
996 599 996Q437 996 320 879Q205 765 205 601V62Q205 36 187 18T143 0Q117 0 99 18T81 62V1058Z" />
<glyph unicode="o" glyph-name="o" horiz-adv-x="1280" d="M1200 560Q1200 328 1036 164Q872 0 640 0Q408 0 244 164Q80 328 80 560Q80 792 244 956Q408 1120 640 1120Q872 1120 1036 956Q1200 792 1200 560ZM640 996Q460 996 332 868Q204 740 204 560Q204 380
332 252Q460 124 640 124Q820 124 948 252Q1075 379 1075 560Q1075 741 948 868Q820 996 640 996Z" />
<glyph unicode="p" glyph-name="p" horiz-adv-x="1280" d="M204 560Q204 380 332 252Q460 124 640 124Q820 124 948 252Q1075 379 1075 560Q1075 741 948 868Q820 996 640 996Q460 996 332 868Q204 740 204 560ZM204 -418Q204 -444 186 -462T142 -480Q116 -480
98 -462T80 -418V560Q80 792 244 956Q408 1120 640 1120Q872 1120 1036 956Q1200 792 1200 560Q1200 328 1036 164Q872 0 640 0Q408 0 244 164L204 203V-418Z" />
<glyph unicode="q" glyph-name="q" horiz-adv-x="1280" d="M640 996Q460 996 332 868Q204 740 204 560Q204 380 332 252Q460 124 640 124Q820 124 948 252Q1075 379 1075 560Q1075 741 948 868Q820 996 640 996ZM1075 203L1036 164Q872 0 640 0Q408 0 244 164Q80
328 80 560Q80 792 244 956Q408 1120 640 1120Q872 1120 1036 956Q1200 792 1200 560V-418Q1200 -444 1182 -462T1138 -480Q1112 -480 1094 -462T1075 -418V203Z" />
<glyph unicode="r" glyph-name="r" horiz-adv-x="960" d="M83 1058Q83 1084 101 1102T145 1120Q171 1120 189 1102T207 1058V917Q410 1120 643 1120Q768 1120 857 1081Q873 1075 886 1062Q903 1045 903 1018Q903 992 885 974T841 956Q825 956 813 962Q743 996
643 996Q463 996 335 868Q207 741 207 560V62Q207 36 189 18T145 0Q119 0 101 18T83 62V1058Z" />
<glyph unicode="s" glyph-name="s" horiz-adv-x="1060" d="M273 580H274Q228 597 197 613T149 648Q82 717 82 809Q82 902 152 974Q296 1120 528 1120Q652 1120 761 1068T958 919Q969 905 969 884Q969 858 951 840T906 821Q881 821 867 837L836 868Q708 996 528
996Q347 996 237 880Q207 845 207 794Q209 764 225 742T272 709L783 540H782Q828 523 859 507T906 472Q974 404 974 311Q974 217 903 146Q760 0 528 0Q277 0 98 200Q87 215 87 236Q87 262 105 280T149 299Q173 299 189 283L220 252Q348 124 528 124Q708 124 817
239Q848 274 848 325Q843 389 783 411L273 580Z" />
<glyph unicode="t" glyph-name="t" horiz-adv-x="800" d="M644 124Q670 124 688 106T707 62Q707 36 689 18T644 0Q250 0 250 394V996H147Q121 996 103 1014T84 1058Q84 1084 102 1102T147 1120H250V1539Q250 1565 268 1583T312 1601Q338 1601 356 1583T375 1539V1120H562Q588
1120 606 1102T625 1058Q625 1032 607 1014T562 996H375V394Q375 124 644 124Z" />
<glyph unicode="u" glyph-name="u" horiz-adv-x="1200" d="M1118 62Q1118 36 1100 18T1055 0Q1029 0 1011 18T993 62V178Q809 0 599 0Q386 0 232 151Q81 303 81 519V1058Q81 1084 99 1102T143 1120Q169 1120 187 1102T205 1058V519Q205 355 320 240Q439 124 599
124Q761 124 877 240Q993 355 993 519V1058Q993 1084 1011 1102T1055 1120Q1081 1120 1099 1102T1118 1058V62Z" />
<glyph unicode="v" glyph-name="v" horiz-adv-x="1200" d="M642 15Q627 0 599 0Q572 0 555 17Q548 24 545 31L85 1034Q81 1044 81 1058Q81 1084 99 1102T143 1120Q169 1120 188 1103Q194 1097 199 1087L599 212L999 1087Q1003 1095 1010 1102Q1029 1120 1055 1120Q1081
1120 1099 1103T1118 1058Q1118 1045 1113 1034L653 31Q649 22 642 15Z" />
<glyph unicode="w" glyph-name="w" horiz-adv-x="1600" d="M760 1103Q778 1120 803 1120Q829 1120 846 1103Q858 1091 864 1072L1135 259L1409 1084Q1413 1094 1421 1102Q1439 1120 1467 1120Q1493 1120 1511 1102T1529 1058Q1529 1046 1524 1032L1193 39Q1189
27 1178 16Q1162 0 1135 0Q1108 0 1091 17Q1082 26 1077 39L803 861L529 39Q525 27 516 18Q498 0 471 0Q444 0 427 17Q418 26 413 39L82 1032Q77 1047 77 1058Q77 1084 95 1102T139 1120Q165 1120 184 1102Q191 1095 196 1083L471 259L742 1072Q749 1092 760 1103Z"
/>
<glyph unicode="x" glyph-name="x" horiz-adv-x="1120" d="M477 561L96 1017Q81 1033 81 1058Q81 1084 99 1102T144 1120Q170 1120 189 1101L558 659L928 1101Q947 1120 973 1120Q999 1120 1017 1102T1035 1058Q1035 1034 1021 1017L639 561L1024 100Q1035 83
1035 62Q1035 36 1017 18T973 0Q947 0 931 19L558 464L186 19Q170 0 144 0Q118 0 100 18T81 62Q81 83 93 100L477 561Z" />
<glyph unicode="y" glyph-name="y" horiz-adv-x="1120" d="M490 63L85 1033Q81 1046 81 1058Q81 1084 99 1102T144 1120Q170 1120 188 1102Q197 1093 203 1077L558 227L913 1077Q919 1093 930 1104Q946 1120 973 1120Q999 1120 1017 1102T1036 1058Q1036 1048
1032 1036L416 -438Q411 -452 402 -461Q383 -480 357 -480Q331 -480 313 -462T295 -418Q295 -405 299 -396L490 63Z" />
<glyph unicode="z" glyph-name="z" horiz-adv-x="1120" d="M973 124Q999 124 1017 106T1035 62Q1035 36 1017 18T973 0H144Q118 0 100 18T81 62Q81 83 93 100L839 996H144Q118 996 100 1014T81 1058Q81 1084 99 1102T144 1120H973Q999 1120 1017 1102T1035 1058Q1035
1034 1021 1017L275 124H973Z" />
<glyph unicode="{" glyph-name="braceleft" horiz-adv-x="800" d="M644 1601Q670 1601 688 1583T707 1539Q707 1513 689 1495T644 1476Q458 1476 458 1290V809Q458 650 366 560Q458 470 458 311V-169Q458 -355 644 -355Q670 -355 688 -373T707 -418Q707 -444 689
-462T644 -480Q333 -480 333 -169V311Q333 498 147 498Q121 498 103 516T84 560Q84 586 102 604T147 622Q333 622 333 809V1290Q333 1601 644 1601Z" />
<glyph unicode="|" glyph-name="bar" horiz-adv-x="800" d="M333 1540Q333 1566 351 1584T395 1602Q421 1602 439 1584T458 1540V-418Q458 -444 440 -462T395 -480Q369 -480 351 -462T333 -418V1540Z" />
<glyph unicode="}" glyph-name="braceright" horiz-adv-x="800" d="M458 809Q458 622 644 622Q670 622 688 604T707 560Q707 534 689 516T644 498Q458 498 458 311V-169Q458 -480 147 -480Q121 -480 103 -462T84 -418Q84 -392 102 -374T147 -355Q333 -355 333
-169V311Q333 469 424 560Q333 651 333 809V1290Q333 1476 147 1476Q121 1476 103 1494T84 1539Q84 1565 102 1583T147 1601Q458 1601 458 1290V809Z" />
<glyph unicode="~" glyph-name="asciitilde" horiz-adv-x="960" d="M517 707Q430 629 311 629Q182 629 90 721Q82 730 78 741T74 764Q74 790 92 808T136 827Q161 827 179 810Q235 754 311 754Q378 754 427 794Q515 873 635 873Q764 873 855 782Q872 764 872 738Q872
712 854 694T810 676Q784 676 766 693Q712 749 635 749Q570 749 517 707Z" />
<glyph unicode="&#xa0;" glyph-name="space" horiz-adv-x="560" />
<glyph unicode="&#xa1;" glyph-name="exclamdown" horiz-adv-x="400" d="M192 912Q148 912 118 942Q88 970 88 1015Q88 1059 118 1089Q148 1119 192 1119Q236 1119 265 1089Q295 1059 295 1015Q295 970 265 942Q236 912 192 912ZM129 726Q129 750 148 768T192
787Q218 787 236 769T254 726V-418Q254 -444 236 -462T192 -480Q166 -480 148 -462T129 -418V726Z" />
<glyph unicode="&#xa2;" glyph-name="cent" horiz-adv-x="1120" d="M665 997Q461 989 341 868Q213 741 213 560Q213 382 360 232L665 997ZM169 -246L311 112Q280 135 252 164Q89 327 89 560Q89 793 252 956Q416 1120 649 1120Q686 1120 713 1117L832 1413Q843
1438 866 1448Q875 1452 890 1452Q916 1452 934 1434T952 1390Q952 1380 947 1367L837 1090Q888 1070 933 1043T1014 985Q1024 976 1029 963T1035 936Q1035 910 1017 892T973 874Q951 874 933 889Q876 939 791 973L466 163Q560 124 649 124Q727 124 800 153T933
231Q948 243 970 243Q996 243 1014 225T1032 180Q1032 155 1014 135Q937 70 845 35T649 0Q537 0 420 48L285 -292Q281 -305 270 -316Q252 -334 226 -334Q200 -334 182 -316T164 -272Q164 -258 169 -246Z" />
<glyph unicode="&#xa3;" glyph-name="sterling" horiz-adv-x="1040" d="M227 0Q201 0 183 18T165 61Q165 72 170 87Q294 374 288 658H144Q118 658 100 676T82 719Q82 745 100 763T144 781H278Q249 935 194 1066L195 1065Q165 1140 165 1213Q165 1375 280 1489Q338
1546 407 1574T559 1603Q642 1603 711 1575T838 1489Q867 1459 889 1428Q901 1411 901 1389Q901 1363 883 1346T839 1328Q810 1328 795 1347Q777 1373 750 1402Q670 1479 559 1479Q448 1479 368 1400Q289 1323 289 1213Q289 1187 294 1162T311 1112Q343 1037 366
954T403 781H725Q751 781 769 763T787 719Q787 694 769 676T725 658H413Q414 529 391 396T319 123H769L837 258Q851 287 891 287Q917 287 935 270T953 226Q953 209 946 196L866 37Q861 27 853 19Q834 0 808 0H227Z" />
<glyph unicode="&#xa4;" glyph-name="currency" horiz-adv-x="960" d="M477 944Q400 944 345 889Q290 832 290 757Q290 682 345 625Q400 570 477 570Q552 570 609 625Q664 682 664 757Q664 832 609 889Q552 944 477 944ZM734 1101Q753 1120 778 1120Q804 1120
822 1102T840 1058Q840 1032 821 1012L736 932Q788 846 788 757Q788 673 739 587L822 501Q840 482 840 456Q840 430 822 412T778 394Q752 394 736 411L652 498Q566 446 477 446Q391 446 308 495L217 409Q201 394 176 394Q150 394 132 412T114 456Q114 482 133 500L220
581Q192 624 179 667T166 757Q166 844 215 927L133 1014Q114 1032 114 1058Q114 1084 132 1102T176 1120Q202 1120 219 1104L302 1016Q385 1068 477 1068Q564 1068 647 1019L734 1101Z" />
<glyph unicode="&#xa5;" glyph-name="yen" horiz-adv-x="1280" d="M142 905Q116 905 98 922T80 966Q80 992 98 1009T142 1027H414L89 1506Q80 1521 80 1542Q80 1567 98 1585T142 1603Q173 1603 192 1578L640 912L1088 1578Q1105 1603 1138 1603Q1164 1603 1182
1585T1200 1542Q1200 1521 1189 1506L866 1027H1139Q1164 1027 1182 1009Q1200 991 1200 966Q1200 940 1182 922Q1164 905 1139 905H783L702 784V616H1138Q1164 616 1182 599T1200 555Q1200 529 1182 511T1138 493H702V61Q702 36 684 18T640 0Q614 0 596 18T578
61V493H142Q116 493 98 511T80 555Q80 581 98 598T142 616H578V784L497 905H142Z" />
<glyph unicode="&#xa6;" glyph-name="brokenbar" horiz-adv-x="480" d="M170 1721Q170 1747 188 1765T232 1784Q258 1784 276 1766T295 1721V975Q295 949 277 931T232 913Q206 913 188 931T170 975V1721ZM295 -418Q295 -444 277 -462T232 -480Q206 -480 188 -462T170
-418V311Q170 337 188 355T232 373Q258 373 276 355T295 311V-418Z" />
<glyph unicode="&#xa7;" glyph-name="section" horiz-adv-x="960" d="M477 172Q313 172 198 285Q83 398 83 560Q83 721 198 834Q232 867 262 886Q232 905 198 938Q83 1050 83 1213Q83 1374 198 1487Q256 1543 325 1571T477 1600Q560 1600 629 1572T756 1487Q871
1374 871 1213Q871 1187 853 1169T809 1151Q783 1151 765 1169T747 1213Q747 1322 667 1398Q587 1477 477 1477Q366 1477 286 1398Q207 1322 207 1213Q207 1102 286 1025Q365 947 477 947Q641 947 756 834Q871 721 871 560Q871 398 756 285Q723 252 692 233Q723
214 756 181Q871 69 871 -93Q871 -254 756 -367Q698 -423 629 -451T477 -480Q394 -480 325 -452T198 -367Q83 -254 83 -93Q83 -67 101 -49T145 -31Q171 -31 189 -49T207 -93Q207 -202 286 -278Q366 -357 477 -357Q587 -357 667 -278Q747 -202 747 -93Q747 15 667
93Q587 172 477 172ZM477 825Q366 825 286 746Q207 669 207 560Q207 449 286 372Q365 294 477 294Q588 294 667 372Q747 450 747 560Q747 668 667 746Q587 825 477 825Z" />
<glyph unicode="&#xa8;" glyph-name="dieresis" horiz-adv-x="960" d="M310 1390Q310 1355 286 1331T227 1307Q192 1307 168 1331T144 1390Q144 1424 168 1448T227 1473Q262 1473 286 1449T310 1390ZM808 1390Q808 1355 784 1331T725 1307Q690 1307 666 1331T642
1390Q642 1424 666 1448T725 1473Q759 1473 783 1449T808 1390Z" />
<glyph unicode="&#xa9;" glyph-name="copyright" horiz-adv-x="1760" d="M1199 489Q1225 489 1243 471T1261 426Q1261 401 1242 382Q1166 317 1074 282T879 247Q648 247 485 410Q322 573 322 804Q322 1035 485 1198Q648 1361 879 1361Q981 1361 1074 1326T1242
1226Q1264 1207 1264 1178Q1264 1152 1246 1134T1202 1116Q1179 1116 1163 1130Q1042 1236 879 1236Q699 1236 573 1110Q447 984 447 804Q447 624 573 498Q700 371 879 371Q957 371 1030 399T1161 477Q1177 489 1199 489ZM1678 802Q1678 470 1443 234Q1208 0 877
0Q545 0 310 234Q75 470 75 802Q75 1135 310 1367Q543 1603 877 1603Q1209 1603 1443 1367Q1678 1135 1678 802ZM877 1518Q581 1518 370 1307Q161 1098 161 802Q161 505 370 295Q582 85 877 85Q1172 85 1382 295Q1593 506 1593 802Q1593 1099 1382 1307Q1174 1518
877 1518Z" />
<glyph unicode="&#xaa;" glyph-name="ordfeminine" horiz-adv-x="960" d="M477 1493Q366 1493 286 1413Q207 1335 207 1224Q207 1112 286 1033Q365 954 477 954Q588 954 667 1033Q747 1113 747 1224Q747 1335 667 1413Q587 1493 477 1493ZM747 939Q635 830 477
830Q313 830 198 945Q83 1059 83 1224Q83 1388 198 1503Q256 1560 325 1589T477 1618Q560 1618 629 1589T756 1503Q871 1388 871 1224V892Q871 866 853 848T809 830Q783 830 765 848Q747 866 747 891V939Z" />
<glyph unicode="&#xab;" glyph-name="guillemotleft" horiz-adv-x="960" d="M336 1080Q343 1094 350 1101Q368 1119 394 1119Q420 1119 438 1101T456 1057Q456 1042 451 1031L215 560L451 88Q456 77 456 62Q456 36 438 18T394 0Q369 0 354 14Q345 23 336 38L93
524Q83 543 83 559Q83 575 91 590L336 1080ZM760 1080Q767 1094 774 1101Q792 1119 818 1119Q844 1119 862 1101T880 1057Q880 1042 875 1031L639 560L875 88Q880 77 880 62Q880 36 862 18T818 0Q793 0 778 14Q769 23 760 38L517 524Q507 543 507 559Q507 575 515
590L760 1080Z" />
<glyph unicode="&#xac;" glyph-name="logicalnot" horiz-adv-x="1120" d="M144 996Q118 996 100 1014T81 1058Q81 1084 99 1102T144 1120H973Q999 1120 1017 1102T1035 1058V726Q1035 700 1017 682T973 664Q947 664 929 682T911 726V996H144Z" />
<glyph unicode="&#xad;" glyph-name="hyphen" horiz-adv-x="800" d="M142 498Q116 498 98 516T79 560Q79 586 97 604T142 622H639Q665 622 683 604T702 560Q702 534 684 516T639 498H142Z" />
<glyph unicode="&#xae;" glyph-name="registered" horiz-adv-x="1760" d="M1681 800Q1681 469 1447 233Q1212 0 882 0Q551 0 316 233Q82 469 82 800Q82 1132 316 1364Q549 1599 882 1599Q1213 1599 1447 1364Q1681 1132 1681 800ZM882 1514Q587 1514 376 1304Q168
1095 168 800Q168 504 376 294Q588 85 882 85Q1176 85 1386 294Q1596 505 1596 800Q1596 1096 1386 1304Q1178 1514 882 1514ZM643 1251V779H879Q976 779 1046 849Q1116 917 1116 1016Q1116 1112 1046 1183Q975 1251 879 1251H643ZM879 1317Q1005 1317 1093 1229Q1182
1141 1182 1016Q1182 954 1160 900T1093 801Q1072 780 1044 762T983 728L1229 334Q1236 324 1236 314Q1236 300 1226 291T1203 281Q1183 281 1173 298L913 716Q895 713 879 713H643V314Q643 300 633 291T608 281Q596 281 586 290T576 314V1285Q576 1299 586 1308T608
1317H879Z" />
<glyph unicode="&#xaf;" glyph-name="overscore" horiz-adv-x="1120" d="M144 1825Q118 1825 100 1843T81 1887Q81 1913 99 1931T144 1950H973Q999 1950 1017 1932T1035 1887Q1035 1861 1017 1843T973 1825H144Z" />
<glyph unicode="&#xb0;" glyph-name="degree" horiz-adv-x="960" d="M871 1224Q871 1059 756 945Q641 830 477 830Q313 830 198 945Q83 1059 83 1224Q83 1388 198 1503Q256 1560 325 1589T477 1618Q560 1618 629 1589T756 1503Q871 1388 871 1224ZM477 1493Q366
1493 286 1413Q207 1335 207 1224Q207 1112 286 1033Q365 954 477 954Q588 954 667 1033Q747 1113 747 1224Q747 1335 667 1413Q587 1493 477 1493Z" />
<glyph unicode="&#xb1;" glyph-name="plusminus" horiz-adv-x="1120" d="M496 1224Q496 1250 514 1268T558 1286Q584 1286 602 1268T621 1224V871H973Q999 871 1017 853T1035 809Q1035 783 1017 765T973 747H621V394Q621 368 603 350T558 332Q532 332 514 350T496
394V747H144Q118 747 100 765T81 809Q81 835 99 853T144 871H496V1224ZM144 0Q118 0 100 18T81 62Q81 88 99 106T144 124H973Q999 124 1017 106T1035 62Q1035 36 1017 18T973 0H144Z" />
<glyph unicode="&#xb2;" glyph-name="uni00B2" horiz-adv-x="640" d="M517 878Q525 878 531 873T537 859Q537 849 531 844T517 838H107Q86 838 86 859Q86 866 92 874Q179 970 267 1068T443 1262Q468 1288 482 1322T496 1392Q496 1468 442 1522Q387 1577 312 1577Q234
1577 180 1522Q126 1468 126 1392Q126 1384 121 1378T107 1372Q97 1372 92 1378T86 1392Q86 1486 151 1551Q218 1618 312 1618Q405 1618 471 1551Q537 1486 537 1392Q537 1299 470 1231L152 878H517Z" />
<glyph unicode="&#xb3;" glyph-name="uni00B3" horiz-adv-x="640" d="M314 1245Q304 1245 299 1251T293 1266Q293 1274 298 1280T314 1287Q374 1287 416 1329Q458 1371 458 1431Q458 1492 416 1534Q374 1576 314 1576Q253 1576 211 1534Q169 1492 169 1431Q169
1423 163 1417T148 1411Q139 1411 133 1417T127 1431Q127 1509 181 1563Q236 1618 314 1618Q353 1618 385 1604T445 1563Q500 1508 500 1431Q500 1346 409 1267Q432 1253 449 1241T475 1221Q541 1153 541 1059Q541 965 475 898Q409 832 314 832Q218 832 152 898Q86
965 86 1059Q86 1067 91 1073T107 1080Q115 1080 121 1074T127 1059Q127 981 181 927Q235 873 314 873Q389 873 445 927Q500 982 500 1059Q500 1098 486 1130T445 1191Q389 1245 314 1245Z" />
<glyph unicode="&#xb4;" glyph-name="acute" horiz-adv-x="560" d="M191 1241Q174 1225 149 1225Q123 1225 105 1243T87 1288Q87 1313 101 1329L353 1581Q371 1599 398 1599Q424 1599 442 1581T460 1537Q460 1525 456 1514T443 1493L191 1241Z" />
<glyph unicode="&#xb5;" glyph-name="mu" horiz-adv-x="1200" d="M205 519Q205 355 320 240Q439 124 599 124Q761 124 877 240Q993 355 993 519V1058Q993 1084 1011 1102T1055 1120Q1081 1120 1099 1102T1118 1058V62Q1118 36 1100 18T1055 0Q1029 0 1011 18T993
62V178Q809 0 599 0Q389 0 205 178V-418Q205 -444 187 -462T143 -480Q117 -480 99 -462T81 -418V1058Q81 1084 99 1102T143 1120Q169 1120 187 1102T205 1058V519Z" />
<glyph unicode="&#xb6;" glyph-name="paragraph" horiz-adv-x="1120" d="M952 62Q952 36 934 18T890 0Q864 0 846 18T828 62V1476H621V62Q621 36 603 18T558 0Q532 0 514 18T496 62V813Q311 813 196 928Q81 1043 81 1207Q81 1290 110 1359T196 1486Q254 1543 323
1572T475 1601H973Q999 1601 1017 1583T1035 1539Q1035 1513 1011 1495T952 1476V62Z" />
<glyph unicode="&#xb7;" glyph-name="middot" horiz-adv-x="400" d="M295 767Q295 722 265 694Q236 664 192 664Q148 664 118 694Q88 722 88 767Q88 811 118 841Q148 871 192 871Q236 871 265 841Q295 811 295 767Z" />
<glyph unicode="&#xb8;" glyph-name="cedilla" horiz-adv-x="640" d="M312 60Q329 77 355 77Q381 77 399 59T418 15Q418 7 416 -1L395 -79Q446 -101 477 -125Q542 -182 542 -265Q542 -346 476 -404Q409 -462 314 -462Q261 -462 205 -434L114 -380Q86 -360 86 -327Q86
-301 104 -283T148 -265Q167 -265 182 -274L263 -325Q287 -337 314 -337Q357 -337 387 -318T418 -265Q418 -231 388 -212T314 -192Q288 -192 270 -174T252 -130Q252 -119 255 -110L295 33Q300 48 312 60Z" />
<glyph unicode="&#xb9;" glyph-name="uni00B9" horiz-adv-x="480" d="M153 1535T148 1535Q140 1535 134 1541T128 1555Q128 1563 134 1569Q137 1572 141 1574L265 1617Q269 1618 273 1618Q281 1618 287 1612T294 1597V856Q294 846 288 841T273 835Q265 835 259
840T253 856V1569L157 1537Q153 1535 148 1535Z" />
<glyph unicode="&#xba;" glyph-name="ordmasculine" horiz-adv-x="640" d="M86 1227Q86 1466 181 1564Q236 1618 313 1618Q352 1618 384 1605T444 1564Q539 1466 539 1227Q539 987 444 889Q390 835 313 835Q235 835 181 889Q86 987 86 1227ZM313 1577Q252 1577
209 1533Q127 1440 127 1227Q127 1012 209 919Q252 876 313 876Q372 876 415 919Q499 1013 499 1227Q499 1437 415 1533Q372 1577 313 1577Z" />
<glyph unicode="&#xbb;" glyph-name="guillemotright" horiz-adv-x="960" d="M872 590Q880 575 880 559Q880 543 870 524L627 38Q618 23 609 14Q594 0 569 0Q543 0 525 18T507 62Q507 77 512 88L748 560L512 1031Q507 1042 507 1057Q507 1083 525 1101T569 1119Q595
1119 613 1101Q620 1094 627 1080L872 590ZM448 590Q456 575 456 559Q456 543 446 524L203 38Q194 23 185 14Q170 0 145 0Q119 0 101 18T83 62Q83 77 88 88L324 560L88 1031Q83 1042 83 1057Q83 1083 101 1101T145 1119Q171 1119 189 1101Q196 1094 203 1080L448
590Z" />
<glyph unicode="&#xbc;" glyph-name="onequarter" horiz-adv-x="1440" d="M1219 1618Q1245 1618 1263 1600T1281 1556Q1281 1537 1272 1521L279 33Q256 0 224 0Q198 0 180 18T161 62Q161 82 171 96L1170 1595Q1178 1606 1190 1612T1219 1618ZM286 693Q286 680
278 672T257 664Q244 664 236 672T228 693V1548L121 1513Q115 1511 107 1511Q95 1511 87 1519T78 1540Q78 1553 87 1561Q91 1565 98 1568L245 1617Q251 1619 257 1619Q269 1619 277 1611T286 1590V693ZM1157 307V831L795 307H1157ZM738 249Q725 249 717 257T709
278Q709 287 714 295L1165 946Q1172 954 1186 954Q1199 954 1207 946T1215 925V307H1335Q1348 307 1356 299T1364 278Q1364 265 1356 257T1335 249H1215V29Q1215 16 1207 8T1186 0Q1173 0 1165 8T1157 29V249H738Z" />
<glyph unicode="&#xbd;" glyph-name="onehalf" horiz-adv-x="1600" d="M1500 58Q1511 58 1520 50T1529 29Q1529 16 1520 8T1500 0H1001Q988 0 980 8T972 29Q972 42 980 50L1406 522Q1471 587 1471 677Q1471 770 1405 833Q1341 897 1250 897Q1160 897 1094 833Q1030
767 1030 677Q1030 665 1022 657T1001 648Q988 648 980 656T972 677Q972 792 1053 873Q1135 955 1250 955Q1366 955 1447 873Q1529 792 1529 677Q1529 561 1446 478L1067 58H1500ZM286 693Q286 680 278 672T257 664Q244 664 236 672T228 693V1548L121 1513Q115
1511 107 1511Q95 1511 87 1519T78 1540Q78 1553 87 1561Q91 1565 98 1568L245 1617Q251 1619 257 1619Q269 1619 277 1611T286 1590V693ZM1219 1618Q1245 1618 1263 1600T1281 1556Q1281 1537 1272 1521L279 33Q256 0 224 0Q198 0 180 18T161 62Q161 82 171 96L1170
1595Q1178 1606 1190 1612T1219 1618Z" />
<glyph unicode="&#xbe;" glyph-name="threequarters" horiz-adv-x="1600" d="M354 1160Q341 1160 333 1168T325 1189Q325 1200 333 1208T354 1217Q423 1217 473 1267Q524 1318 524 1388Q524 1457 473 1507Q423 1557 354 1557Q285 1557 235 1507Q185 1458 185 1388Q185
1375 176 1367T156 1359Q143 1359 135 1367T127 1388Q127 1483 193 1548Q260 1615 354 1615Q448 1615 515 1548Q581 1482 581 1388Q581 1293 515 1227Q498 1209 475 1192Q515 1174 550 1138Q631 1055 631 941Q631 826 550 745Q469 664 354 664Q239 664 158 745Q77
826 77 941Q77 953 85 961T106 970Q119 970 127 962T135 941Q135 850 198 786Q264 722 354 722Q444 722 508 786Q573 851 573 941Q573 1033 508 1096Q445 1160 354 1160ZM1377 1618Q1403 1618 1421 1600T1439 1556Q1439 1537 1430 1521L437 33Q414 0 382 0Q356
0 338 18T319 62Q319 82 329 96L1328 1595Q1336 1606 1348 1612T1377 1618ZM1328 307V831L966 307H1328ZM909 249Q896 249 888 257T880 278Q880 287 885 295L1336 946Q1343 954 1357 954Q1370 954 1378 946T1386 925V307H1506Q1519 307 1527 299T1535 278Q1535
265 1527 257T1506 249H1386V29Q1386 16 1378 8T1357 0Q1344 0 1336 8T1328 29V249H909Z" />
<glyph unicode="&#xbf;" glyph-name="questiondown" horiz-adv-x="1120" d="M557 -355Q704 -355 806 -252Q910 -149 910 -3Q910 144 806 247Q763 287 721 327T635 407V406Q495 546 495 744Q495 770 513 788T557 806Q583 806 601 788T620 744Q620 596 723 493L894
334V335Q1034 196 1034 -3Q1034 -102 1000 -186T894 -340Q756 -480 557 -480Q361 -480 219 -340Q80 -201 80 -3Q80 23 98 41T143 59Q169 59 187 41T205 -3Q205 -149 307 -252Q411 -355 557 -355ZM558 912Q513 912 485 942Q455 970 455 1015Q455 1059 485 1089Q513
1119 558 1119Q602 1119 632 1089Q662 1059 662 1015Q662 970 632 942Q602 912 558 912Z" />
<glyph unicode="&#xc0;" glyph-name="Agrave" horiz-adv-x="1440" d="M421 574L212 38Q206 24 198 16Q181 0 155 0Q129 0 111 18T93 62Q93 75 99 89L670 1556Q676 1572 686 1583Q703 1600 729 1600Q755 1600 773 1582Q783 1572 789 1556L1359 89Q1365 75 1365
62Q1365 36 1347 18T1304 0Q1278 0 1261 15Q1252 24 1246 38L1038 574H421ZM990 697L729 1369L469 697H990ZM485 2019Q485 2045 503 2063T547 2081Q573 2081 591 2063L843 1811Q858 1794 858 1770Q858 1744 840 1726T796 1707Q772 1707 753 1723L501 1975Q493 1984
489 1995T485 2019Z" />
<glyph unicode="&#xc1;" glyph-name="Aacute" horiz-adv-x="1440" d="M421 574L212 38Q206 24 198 16Q181 0 155 0Q129 0 111 18T93 62Q93 75 99 89L670 1556Q676 1572 686 1583Q703 1600 729 1600Q755 1600 773 1582Q783 1572 789 1556L1359 89Q1365 75 1365
62Q1365 36 1347 18T1304 0Q1278 0 1261 15Q1252 24 1246 38L1038 574H421ZM990 697L729 1369L469 697H990ZM711 1721Q694 1705 669 1705Q643 1705 625 1723T607 1768Q607 1793 621 1809L873 2061Q891 2079 918 2079Q944 2079 962 2061T980 2017Q980 2005 976 1994T963
1973L711 1721Z" />
<glyph unicode="&#xc2;" glyph-name="Acircumflex" horiz-adv-x="1440" d="M421 574L212 38Q206 24 198 16Q181 0 155 0Q129 0 111 18T93 62Q93 75 99 89L670 1556Q676 1572 686 1583Q703 1600 729 1600Q755 1600 773 1582Q783 1572 789 1556L1359 89Q1365 75
1365 62Q1365 36 1347 18T1304 0Q1278 0 1261 15Q1252 24 1246 38L1038 574H421ZM990 697L729 1369L469 697H990ZM1007 1883Q1040 1860 1040 1828Q1040 1802 1022 1784T977 1766Q955 1766 937 1779L728 1918L519 1779Q501 1766 480 1766Q454 1766 436 1784T417
1828Q417 1860 449 1883L697 2048Q711 2056 728 2056Q746 2056 760 2048L1007 1883Z" />
<glyph unicode="&#xc3;" glyph-name="Atilde" horiz-adv-x="1440" d="M421 574L212 38Q206 24 198 16Q181 0 155 0Q129 0 111 18T93 62Q93 75 99 89L670 1556Q676 1572 686 1583Q703 1600 729 1600Q755 1600 773 1582Q783 1572 789 1556L1359 89Q1365 75 1365
62Q1365 36 1347 18T1304 0Q1278 0 1261 15Q1252 24 1246 38L1038 574H421ZM990 697L729 1369L469 697H990ZM767 1838Q680 1760 561 1760Q432 1760 340 1852Q332 1861 328 1872T324 1895Q324 1921 342 1939T386 1958Q411 1958 429 1941Q485 1885 561 1885Q628 1885
677 1925Q765 2004 885 2004Q1014 2004 1105 1913Q1122 1895 1122 1869Q1122 1843 1104 1825T1060 1807Q1034 1807 1016 1824Q962 1880 885 1880Q820 1880 767 1838Z" />
<glyph unicode="&#xc4;" glyph-name="Adieresis" horiz-adv-x="1440" d="M421 574L212 38Q206 24 198 16Q181 0 155 0Q129 0 111 18T93 62Q93 75 99 89L670 1556Q676 1572 686 1583Q703 1600 729 1600Q755 1600 773 1582Q783 1572 789 1556L1359 89Q1365 75 1365
62Q1365 36 1347 18T1304 0Q1278 0 1261 15Q1252 24 1246 38L1038 574H421ZM990 697L729 1369L469 697H990ZM564 1870Q564 1835 540 1811T481 1787Q446 1787 422 1811T398 1870Q398 1904 422 1928T481 1953Q516 1953 540 1929T564 1870ZM1062 1870Q1062 1835 1038
1811T979 1787Q944 1787 920 1811T896 1870Q896 1904 920 1928T979 1953Q1013 1953 1037 1929T1062 1870Z" />
<glyph unicode="&#xc5;" glyph-name="Aring" horiz-adv-x="1440" d="M421 574L212 38Q206 24 198 16Q181 0 155 0Q129 0 111 18T93 62Q93 75 99 89L670 1556Q676 1572 686 1583Q703 1600 729 1600Q755 1600 773 1582Q783 1572 789 1556L1359 89Q1365 75 1365 62Q1365
36 1347 18T1304 0Q1278 0 1261 15Q1252 24 1246 38L1038 574H421ZM990 697L729 1369L469 697H990ZM914 1892Q914 1815 859 1758Q804 1703 726 1703Q649 1703 592 1758Q537 1815 537 1892Q537 1970 592 2025Q649 2080 726 2080Q804 2080 859 2025Q914 1970 914
1892ZM771 1783T803 1815T835 1892Q835 1937 803 1969T726 2001Q681 2001 649 1969T617 1892Q617 1847 649 1815T726 1783Q771 1783 803 1815Z" />
<glyph unicode="&#xc6;" glyph-name="AE" horiz-adv-x="1760" d="M900 1300L611 779H900V1300ZM1618 1600Q1644 1600 1661 1582T1679 1538Q1679 1513 1662 1495T1618 1477H1023V779H1454Q1479 779 1497 762T1515 718Q1515 692 1497 674T1454 656H1023V123H1618Q1644
123 1661 105T1679 62Q1679 36 1662 18T1618 0H961Q935 0 918 18T900 62V656H542L193 29Q174 0 141 0Q115 0 97 18T79 62Q79 79 86 90L909 1572Q926 1600 961 1600H1618Z" />
<glyph unicode="&#xc7;" glyph-name="Ccedilla" horiz-adv-x="1480" d="M1350 281Q1376 281 1394 263T1412 219Q1412 194 1397 178Q1285 91 1159 46T893 0Q730 0 587 61T327 234Q215 351 154 494T93 800Q93 1131 327 1365Q562 1600 893 1600Q1178 1600 1400 1418Q1418
1400 1418 1374Q1418 1349 1400 1331T1357 1313Q1331 1313 1306 1337Q1133 1477 893 1477Q613 1477 414 1278Q216 1080 216 800Q216 519 414 321Q612 123 893 123Q1135 123 1317 272Q1330 281 1350 281ZM751 60Q768 77 794 77Q820 77 838 59T857 15Q857 7 855 -1L834
-79Q885 -101 916 -125Q981 -182 981 -265Q981 -346 915 -404Q848 -462 753 -462Q700 -462 644 -434L553 -380Q525 -360 525 -327Q525 -301 543 -283T587 -265Q606 -265 621 -274L702 -325Q726 -337 753 -337Q796 -337 826 -318T857 -265Q857 -231 827 -212T753
-192Q727 -192 709 -174T691 -130Q691 -119 694 -110L734 33Q739 48 751 60Z" />
<glyph unicode="&#xc8;" glyph-name="Egrave" horiz-adv-x="1280" d="M1142 1600Q1167 1600 1185 1582T1203 1538Q1203 1513 1185 1495T1142 1477H218V862H895Q921 862 939 844T957 800Q957 774 939 756T895 738H218V123H1142Q1167 123 1185 105T1203 62Q1203
36 1185 18T1142 0H157Q131 0 113 18T95 62V1538Q95 1564 113 1582T157 1600H1142ZM408 2019Q408 2045 426 2063T470 2081Q496 2081 514 2063L766 1811Q781 1794 781 1770Q781 1744 763 1726T719 1707Q695 1707 676 1723L424 1975Q416 1984 412 1995T408 2019Z"
/>
<glyph unicode="&#xc9;" glyph-name="Eacute" horiz-adv-x="1280" d="M1142 1600Q1167 1600 1185 1582T1203 1538Q1203 1513 1185 1495T1142 1477H218V862H895Q921 862 939 844T957 800Q957 774 939 756T895 738H218V123H1142Q1167 123 1185 105T1203 62Q1203
36 1185 18T1142 0H157Q131 0 113 18T95 62V1538Q95 1564 113 1582T157 1600H1142ZM634 1721Q617 1705 592 1705Q566 1705 548 1723T530 1768Q530 1793 544 1809L796 2061Q814 2079 841 2079Q867 2079 885 2061T903 2017Q903 2005 899 1994T886 1973L634 1721Z"
/>
<glyph unicode="&#xca;" glyph-name="Ecircumflex" horiz-adv-x="1280" d="M1142 1600Q1167 1600 1185 1582T1203 1538Q1203 1513 1185 1495T1142 1477H218V862H895Q921 862 939 844T957 800Q957 774 939 756T895 738H218V123H1142Q1167 123 1185 105T1203 62Q1203
36 1185 18T1142 0H157Q131 0 113 18T95 62V1538Q95 1564 113 1582T157 1600H1142ZM928 1883Q961 1860 961 1828Q961 1802 943 1784T898 1766Q876 1766 858 1779L649 1918L440 1779Q422 1766 401 1766Q375 1766 357 1784T338 1828Q338 1860 370 1883L618 2048Q632
2056 649 2056Q667 2056 681 2048L928 1883Z" />
<glyph unicode="&#xcb;" glyph-name="Edieresis" horiz-adv-x="1280" d="M1142 1600Q1167 1600 1185 1582T1203 1538Q1203 1513 1185 1495T1142 1477H218V862H895Q921 862 939 844T957 800Q957 774 939 756T895 738H218V123H1142Q1167 123 1185 105T1203 62Q1203
36 1185 18T1142 0H157Q131 0 113 18T95 62V1538Q95 1564 113 1582T157 1600H1142ZM487 1870Q487 1835 463 1811T404 1787Q369 1787 345 1811T321 1870Q321 1904 345 1928T404 1953Q439 1953 463 1929T487 1870ZM985 1870Q985 1835 961 1811T902 1787Q867 1787
843 1811T819 1870Q819 1904 843 1928T902 1953Q936 1953 960 1929T985 1870Z" />
<glyph unicode="&#xcc;" glyph-name="Igrave" horiz-adv-x="480" d="M178 1538Q178 1564 195 1582T239 1600Q265 1600 283 1582T301 1538V62Q301 36 283 18T239 0Q213 0 196 18T178 62V1538ZM-6 2019Q-6 2045 12 2063T56 2081Q82 2081 100 2063L352 1811Q367 1794
367 1770Q367 1744 349 1726T305 1707Q281 1707 262 1723L10 1975Q2 1984 -2 1995T-6 2019Z" />
<glyph unicode="&#xcd;" glyph-name="Iacute" horiz-adv-x="480" d="M178 1538Q178 1564 195 1582T239 1600Q265 1600 283 1582T301 1538V62Q301 36 283 18T239 0Q213 0 196 18T178 62V1538ZM218 1721Q201 1705 176 1705Q150 1705 132 1723T114 1768Q114 1793
128 1809L380 2061Q398 2079 425 2079Q451 2079 469 2061T487 2017Q487 2005 483 1994T470 1973L218 1721Z" />
<glyph unicode="&#xce;" glyph-name="Icircumflex" horiz-adv-x="480" d="M178 1538Q178 1564 195 1582T239 1600Q265 1600 283 1582T301 1538V62Q301 36 283 18T239 0Q213 0 196 18T178 62V1538ZM516 1883Q549 1860 549 1828Q549 1802 531 1784T486 1766Q464
1766 446 1779L237 1918L28 1779Q10 1766 -11 1766Q-37 1766 -55 1784T-74 1828Q-74 1860 -42 1883L206 2048Q220 2056 237 2056Q255 2056 269 2048L516 1883Z" />
<glyph unicode="&#xcf;" glyph-name="Idieresis" horiz-adv-x="480" d="M178 1538Q178 1564 195 1582T239 1600Q265 1600 283 1582T301 1538V62Q301 36 283 18T239 0Q213 0 196 18T178 62V1538ZM73 1870Q73 1835 49 1811T-10 1787Q-45 1787 -69 1811T-93 1870Q-93
1904 -69 1928T-10 1953Q25 1953 49 1929T73 1870ZM571 1870Q571 1835 547 1811T488 1787Q453 1787 429 1811T405 1870Q405 1904 429 1928T488 1953Q522 1953 546 1929T571 1870Z" />
<glyph unicode="&#xd0;" glyph-name="Eth" horiz-adv-x="1520" d="M244 862V1538Q244 1564 262 1582T306 1600H634Q965 1600 1199 1365Q1434 1131 1434 800Q1434 469 1199 234Q965 0 634 0H306Q280 0 262 18T244 62V738H61Q35 738 17 756T-1 800Q-1 826 17 844T61
862H244ZM367 862H716Q742 862 760 844T778 800Q778 774 760 756T716 738H367V123H634Q914 123 1112 321Q1311 520 1311 800Q1311 1079 1112 1278Q913 1477 634 1477H367V862Z" />
<glyph unicode="&#xd1;" glyph-name="Ntilde" horiz-adv-x="1440" d="M216 62Q216 36 199 18T155 0Q129 0 111 18T93 62V1538Q93 1564 111 1582T155 1600Q184 1600 202 1578L1242 241V1538Q1242 1564 1260 1582T1304 1600Q1329 1600 1347 1582T1365 1538V62Q1365
36 1347 18T1304 0Q1274 0 1258 18L216 1358V62ZM767 1838Q680 1760 561 1760Q432 1760 340 1852Q332 1861 328 1872T324 1895Q324 1921 342 1939T386 1958Q411 1958 429 1941Q485 1885 561 1885Q628 1885 677 1925Q765 2004 885 2004Q1014 2004 1105 1913Q1122
1895 1122 1869Q1122 1843 1104 1825T1060 1807Q1034 1807 1016 1824Q962 1880 885 1880Q820 1880 767 1838Z" />
<glyph unicode="&#xd2;" glyph-name="Ograve" horiz-adv-x="1760" d="M891 1477Q613 1477 412 1278Q214 1080 214 800Q214 519 412 321Q611 123 891 123Q1171 123 1369 321Q1568 519 1568 800Q1568 1080 1369 1278Q1170 1477 891 1477ZM1691 800Q1691 469 1456
234Q1223 0 891 0Q728 0 585 61T325 234Q213 351 152 494T91 800Q91 1131 325 1365Q560 1600 891 1600Q1224 1600 1456 1365Q1691 1131 1691 800ZM723 2019Q723 2045 741 2063T785 2081Q811 2081 829 2063L1081 1811Q1096 1794 1096 1770Q1096 1744 1078 1726T1034
1707Q1010 1707 991 1723L739 1975Q731 1984 727 1995T723 2019Z" />
<glyph unicode="&#xd3;" glyph-name="Oacute" horiz-adv-x="1760" d="M891 1477Q613 1477 412 1278Q214 1080 214 800Q214 519 412 321Q611 123 891 123Q1171 123 1369 321Q1568 519 1568 800Q1568 1080 1369 1278Q1170 1477 891 1477ZM1691 800Q1691 469 1456
234Q1223 0 891 0Q728 0 585 61T325 234Q213 351 152 494T91 800Q91 1131 325 1365Q560 1600 891 1600Q1224 1600 1456 1365Q1691 1131 1691 800ZM799 1721Q782 1705 757 1705Q731 1705 713 1723T695 1768Q695 1793 709 1809L961 2061Q979 2079 1006 2079Q1032
2079 1050 2061T1068 2017Q1068 2005 1064 1994T1051 1973L799 1721Z" />
<glyph unicode="&#xd4;" glyph-name="Ocircumflex" horiz-adv-x="1760" d="M891 1477Q613 1477 412 1278Q214 1080 214 800Q214 519 412 321Q611 123 891 123Q1171 123 1369 321Q1568 519 1568 800Q1568 1080 1369 1278Q1170 1477 891 1477ZM1691 800Q1691 469
1456 234Q1223 0 891 0Q728 0 585 61T325 234Q213 351 152 494T91 800Q91 1131 325 1365Q560 1600 891 1600Q1224 1600 1456 1365Q1691 1131 1691 800ZM1165 1883Q1198 1860 1198 1828Q1198 1802 1180 1784T1135 1766Q1113 1766 1095 1779L886 1918L677 1779Q659
1766 638 1766Q612 1766 594 1784T575 1828Q575 1860 607 1883L855 2048Q869 2056 886 2056Q904 2056 918 2048L1165 1883Z" />
<glyph unicode="&#xd5;" glyph-name="Otilde" horiz-adv-x="1760" d="M891 1477Q613 1477 412 1278Q214 1080 214 800Q214 519 412 321Q611 123 891 123Q1171 123 1369 321Q1568 519 1568 800Q1568 1080 1369 1278Q1170 1477 891 1477ZM1691 800Q1691 469 1456
234Q1223 0 891 0Q728 0 585 61T325 234Q213 351 152 494T91 800Q91 1131 325 1365Q560 1600 891 1600Q1224 1600 1456 1365Q1691 1131 1691 800ZM925 1838Q838 1760 719 1760Q590 1760 498 1852Q490 1861 486 1872T482 1895Q482 1921 500 1939T544 1958Q569 1958
587 1941Q643 1885 719 1885Q786 1885 835 1925Q923 2004 1043 2004Q1172 2004 1263 1913Q1280 1895 1280 1869Q1280 1843 1262 1825T1218 1807Q1192 1807 1174 1824Q1120 1880 1043 1880Q978 1880 925 1838Z" />
<glyph unicode="&#xd6;" glyph-name="Odieresis" horiz-adv-x="1760" d="M891 1477Q613 1477 412 1278Q214 1080 214 800Q214 519 412 321Q611 123 891 123Q1171 123 1369 321Q1568 519 1568 800Q1568 1080 1369 1278Q1170 1477 891 1477ZM1691 800Q1691 469 1456
234Q1223 0 891 0Q728 0 585 61T325 234Q213 351 152 494T91 800Q91 1131 325 1365Q560 1600 891 1600Q1224 1600 1456 1365Q1691 1131 1691 800ZM722 1870Q722 1835 698 1811T639 1787Q604 1787 580 1811T556 1870Q556 1904 580 1928T639 1953Q674 1953 698 1929T722
1870ZM1220 1870Q1220 1835 1196 1811T1137 1787Q1102 1787 1078 1811T1054 1870Q1054 1904 1078 1928T1137 1953Q1171 1953 1195 1929T1220 1870Z" />
<glyph unicode="&#xd7;" glyph-name="multiply" horiz-adv-x="960" d="M388 726L99 1014Q83 1032 83 1058Q83 1084 101 1102T145 1120Q171 1120 191 1101L477 815L763 1101Q783 1120 809 1120Q835 1120 853 1102T871 1058Q871 1032 854 1014L566 726L854 438Q871
420 871 394Q871 368 853 350T809 332Q783 332 766 347L477 637L188 347Q171 332 145 332Q119 332 101 350T83 394Q83 420 99 438L388 726Z" />
<glyph unicode="&#xd8;" glyph-name="Oslash" horiz-adv-x="1760" d="M1487 1320Q1679 1092 1679 800Q1679 469 1444 234Q1211 0 879 0Q588 0 359 192L185 17Q167 0 141 0Q115 0 97 18T79 62Q79 87 95 104L271 280Q79 509 79 800Q79 1131 313 1365Q548 1600 879
1600Q1169 1600 1399 1408L1574 1583Q1592 1600 1618 1600Q1644 1600 1661 1582T1679 1538Q1679 1514 1665 1498L1487 1320ZM1312 1321Q1117 1477 879 1477Q601 1477 400 1278Q202 1080 202 800Q202 564 358 367L1312 1321ZM446 279Q642 123 879 123Q1159 123 1357
321Q1556 519 1556 800Q1556 1037 1400 1234L446 279Z" />
<glyph unicode="&#xd9;" glyph-name="Ugrave" horiz-adv-x="1280" d="M94 1538Q94 1564 112 1582T156 1600Q182 1600 199 1582T217 1538V554Q217 375 344 249Q470 123 648 123Q827 123 953 249Q1079 375 1079 554V1538Q1079 1564 1097 1582T1141 1600Q1166 1600
1184 1582T1202 1538V554Q1202 324 1040 162Q878 0 648 0Q418 0 256 162Q175 243 135 340T94 554V1538ZM405 2019Q405 2045 423 2063T467 2081Q493 2081 511 2063L763 1811Q778 1794 778 1770Q778 1744 760 1726T716 1707Q692 1707 673 1723L421 1975Q413 1984
409 1995T405 2019Z" />
<glyph unicode="&#xda;" glyph-name="Uacute" horiz-adv-x="1280" d="M94 1538Q94 1564 112 1582T156 1600Q182 1600 199 1582T217 1538V554Q217 375 344 249Q470 123 648 123Q827 123 953 249Q1079 375 1079 554V1538Q1079 1564 1097 1582T1141 1600Q1166 1600
1184 1582T1202 1538V554Q1202 324 1040 162Q878 0 648 0Q418 0 256 162Q175 243 135 340T94 554V1538ZM631 1721Q614 1705 589 1705Q563 1705 545 1723T527 1768Q527 1793 541 1809L793 2061Q811 2079 838 2079Q864 2079 882 2061T900 2017Q900 2005 896 1994T883
1973L631 1721Z" />
<glyph unicode="&#xdb;" glyph-name="Ucircumflex" horiz-adv-x="1280" d="M94 1538Q94 1564 112 1582T156 1600Q182 1600 199 1582T217 1538V554Q217 375 344 249Q470 123 648 123Q827 123 953 249Q1079 375 1079 554V1538Q1079 1564 1097 1582T1141 1600Q1166
1600 1184 1582T1202 1538V554Q1202 324 1040 162Q878 0 648 0Q418 0 256 162Q175 243 135 340T94 554V1538ZM927 1883Q960 1860 960 1828Q960 1802 942 1784T897 1766Q875 1766 857 1779L648 1918L439 1779Q421 1766 400 1766Q374 1766 356 1784T337 1828Q337
1860 369 1883L617 2048Q631 2056 648 2056Q666 2056 680 2048L927 1883Z" />
<glyph unicode="&#xdc;" glyph-name="Udieresis" horiz-adv-x="1280" d="M94 1538Q94 1564 112 1582T156 1600Q182 1600 199 1582T217 1538V554Q217 375 344 249Q470 123 648 123Q827 123 953 249Q1079 375 1079 554V1538Q1079 1564 1097 1582T1141 1600Q1166
1600 1184 1582T1202 1538V554Q1202 324 1040 162Q878 0 648 0Q418 0 256 162Q175 243 135 340T94 554V1538ZM484 1870Q484 1835 460 1811T401 1787Q366 1787 342 1811T318 1870Q318 1904 342 1928T401 1953Q436 1953 460 1929T484 1870ZM982 1870Q982 1835 958
1811T899 1787Q864 1787 840 1811T816 1870Q816 1904 840 1928T899 1953Q933 1953 957 1929T982 1870Z" />
<glyph unicode="&#xdd;" glyph-name="Yacute" horiz-adv-x="1280" d="M710 62Q710 36 692 18T648 0Q622 0 605 18T587 62V782L104 1504Q94 1520 94 1538Q94 1564 112 1582T156 1600Q186 1600 205 1575L648 911L1091 1575Q1109 1600 1141 1600Q1166 1600 1184 1582T1202
1538Q1202 1518 1192 1504L710 782V62ZM631 1721Q614 1705 589 1705Q563 1705 545 1723T527 1768Q527 1793 541 1809L793 2061Q811 2079 838 2079Q864 2079 882 2061T900 2017Q900 2005 896 1994T883 1973L631 1721Z" />
<glyph unicode="&#xde;" glyph-name="Thorn" horiz-adv-x="1280" d="M82 1538Q82 1564 100 1582T144 1600Q170 1600 187 1582T205 1538V1272H718Q914 1272 1052 1133Q1190 996 1190 800Q1190 604 1052 466Q914 328 718 328H205V62Q205 36 188 18T144 0Q118 0 100
18T82 62V1538ZM718 451Q863 451 964 553Q1067 656 1067 800Q1067 944 964 1046Q864 1149 718 1149H205V451H718Z" />
<glyph unicode="&#xdf;" glyph-name="germandbls" horiz-adv-x="1120" d="M206 62Q206 36 188 18T144 0Q118 0 100 18T81 62V1224Q81 1307 110 1376T196 1503Q254 1560 323 1589T475 1618Q639 1618 754 1503Q869 1388 869 1224Q869 1080 778 972Q748 933 748 878Q748
785 817 748Q876 717 920 673Q1035 558 1035 394Q1035 230 920 115Q806 0 641 0Q477 0 362 115Q342 137 342 162Q342 188 360 206T404 224Q431 224 452 204Q530 124 641 124Q752 124 831 203Q911 283 911 394Q911 506 832 585Q804 613 769 634Q733 656 701 685Q621
765 621 879Q621 985 690 1061Q745 1132 745 1224Q745 1335 665 1413Q585 1493 475 1493Q365 1493 286 1415Q206 1335 206 1224V62Z" />
<glyph unicode="&#xe0;" glyph-name="agrave" horiz-adv-x="1280" d="M652 996Q472 996 344 868Q216 740 216 560Q216 380 344 252Q472 124 652 124Q832 124 960 252Q1087 379 1087 560Q1087 741 960 868Q832 996 652 996ZM1087 203Q885 0 652 0Q420 0 256 164Q92
328 92 560Q92 792 256 956Q420 1120 652 1120Q884 1120 1048 956Q1212 792 1212 560V62Q1212 36 1194 18T1150 0Q1124 0 1106 18T1087 62V203ZM428 1539Q428 1565 446 1583T490 1601Q516 1601 534 1583L786 1331Q801 1314 801 1290Q801 1264 783 1246T739 1227Q715
1227 696 1243L444 1495Q436 1504 432 1515T428 1539Z" />
<glyph unicode="&#xe1;" glyph-name="aacute" horiz-adv-x="1280" d="M652 996Q472 996 344 868Q216 740 216 560Q216 380 344 252Q472 124 652 124Q832 124 960 252Q1087 379 1087 560Q1087 741 960 868Q832 996 652 996ZM1087 203Q885 0 652 0Q420 0 256 164Q92
328 92 560Q92 792 256 956Q420 1120 652 1120Q884 1120 1048 956Q1212 792 1212 560V62Q1212 36 1194 18T1150 0Q1124 0 1106 18T1087 62V203ZM583 1241Q566 1225 541 1225Q515 1225 497 1243T479 1288Q479 1313 493 1329L745 1581Q763 1599 790 1599Q816 1599
834 1581T852 1537Q852 1525 848 1514T835 1493L583 1241Z" />
<glyph unicode="&#xe2;" glyph-name="acircumflex" horiz-adv-x="1280" d="M652 996Q472 996 344 868Q216 740 216 560Q216 380 344 252Q472 124 652 124Q832 124 960 252Q1087 379 1087 560Q1087 741 960 868Q832 996 652 996ZM1087 203Q885 0 652 0Q420 0 256
164Q92 328 92 560Q92 792 256 956Q420 1120 652 1120Q884 1120 1048 956Q1212 792 1212 560V62Q1212 36 1194 18T1150 0Q1124 0 1106 18T1087 62V203ZM926 1403Q959 1380 959 1348Q959 1322 941 1304T896 1286Q874 1286 856 1299L647 1438L438 1299Q420 1286 399
1286Q373 1286 355 1304T336 1348Q336 1380 368 1403L616 1568Q630 1576 647 1576Q665 1576 679 1568L926 1403Z" />
<glyph unicode="&#xe3;" glyph-name="atilde" horiz-adv-x="1280" d="M652 996Q472 996 344 868Q216 740 216 560Q216 380 344 252Q472 124 652 124Q832 124 960 252Q1087 379 1087 560Q1087 741 960 868Q832 996 652 996ZM1087 203Q885 0 652 0Q420 0 256 164Q92
328 92 560Q92 792 256 956Q420 1120 652 1120Q884 1120 1048 956Q1212 792 1212 560V62Q1212 36 1194 18T1150 0Q1124 0 1106 18T1087 62V203ZM693 1358Q606 1280 487 1280Q358 1280 266 1372Q258 1381 254 1392T250 1415Q250 1441 268 1459T312 1478Q337 1478
355 1461Q411 1405 487 1405Q554 1405 603 1445Q691 1524 811 1524Q940 1524 1031 1433Q1048 1415 1048 1389Q1048 1363 1030 1345T986 1327Q960 1327 942 1344Q888 1400 811 1400Q746 1400 693 1358Z" />
<glyph unicode="&#xe4;" glyph-name="adieresis" horiz-adv-x="1280" d="M652 996Q472 996 344 868Q216 740 216 560Q216 380 344 252Q472 124 652 124Q832 124 960 252Q1087 379 1087 560Q1087 741 960 868Q832 996 652 996ZM1087 203Q885 0 652 0Q420 0 256
164Q92 328 92 560Q92 792 256 956Q420 1120 652 1120Q884 1120 1048 956Q1212 792 1212 560V62Q1212 36 1194 18T1150 0Q1124 0 1106 18T1087 62V203ZM483 1390Q483 1355 459 1331T400 1307Q365 1307 341 1331T317 1390Q317 1424 341 1448T400 1473Q435 1473 459
1449T483 1390ZM981 1390Q981 1355 957 1331T898 1307Q863 1307 839 1331T815 1390Q815 1424 839 1448T898 1473Q932 1473 956 1449T981 1390Z" />
<glyph unicode="&#xe5;" glyph-name="aring" horiz-adv-x="1280" d="M652 996Q472 996 344 868Q216 740 216 560Q216 380 344 252Q472 124 652 124Q832 124 960 252Q1087 379 1087 560Q1087 741 960 868Q832 996 652 996ZM1087 203Q885 0 652 0Q420 0 256 164Q92
328 92 560Q92 792 256 956Q420 1120 652 1120Q884 1120 1048 956Q1212 792 1212 560V62Q1212 36 1194 18T1150 0Q1124 0 1106 18T1087 62V203ZM834 1412Q834 1335 779 1278Q724 1223 646 1223Q569 1223 512 1278Q457 1335 457 1412Q457 1490 512 1545Q569 1600
646 1600Q724 1600 779 1545Q834 1490 834 1412ZM691 1303T723 1335T755 1412Q755 1457 723 1489T646 1521Q601 1521 569 1489T537 1412Q537 1367 569 1335T646 1303Q691 1303 723 1335Z" />
<glyph unicode="&#xe6;" glyph-name="ae" horiz-adv-x="2240" d="M631 996Q451 996 323 868Q195 740 195 560Q195 380 323 252Q451 124 631 124Q811 124 939 252Q1067 380 1067 560Q1067 740 939 868Q811 996 631 996ZM2060 622Q2030 773 1935 868Q1805 996 1627
996Q1447 996 1319 868Q1269 819 1239 758T1193 622H2060ZM1191 62Q1191 36 1173 18T1129 0Q1103 0 1085 18T1067 62V203Q864 0 631 0Q399 0 235 164Q71 328 71 560Q71 792 235 956Q399 1120 631 1120Q863 1120 1027 956Q1074 909 1129 822Q1155 864 1180 897T1230
956Q1394 1120 1627 1120Q1859 1120 2023 956Q2187 792 2187 560Q2187 534 2169 516T2124 498H1193Q1223 346 1319 252Q1447 124 1627 124Q1708 124 1778 150T1907 227Q1924 241 1946 241Q1972 241 1990 223T2008 178Q2008 150 1992 135Q1836 0 1627 0Q1394 0 1191
203V62Z" />
<glyph unicode="&#xe7;" glyph-name="ccedilla" horiz-adv-x="1120" d="M975 243Q1001 243 1019 225T1037 180Q1037 154 1018 135Q942 70 849 35T653 0Q421 0 257 164Q93 328 93 560Q93 792 257 956Q421 1120 653 1120Q756 1120 849 1085T1018 985Q1027 976 1033
963T1040 936Q1040 910 1022 892T978 874Q954 874 938 889Q816 996 653 996Q473 996 345 868Q218 741 218 560Q218 379 345 252Q473 124 653 124Q732 124 805 153T938 231Q953 243 975 243ZM562 60Q579 77 605 77Q631 77 649 59T668 15Q668 7 666 -1L645 -79Q696
-101 727 -125Q792 -182 792 -265Q792 -346 726 -404Q659 -462 564 -462Q511 -462 455 -434L364 -380Q336 -360 336 -327Q336 -301 354 -283T398 -265Q417 -265 432 -274L513 -325Q537 -337 564 -337Q607 -337 637 -318T668 -265Q668 -231 638 -212T564 -192Q538
-192 520 -174T502 -130Q502 -119 505 -110L545 33Q550 48 562 60Z" />
<glyph unicode="&#xe8;" glyph-name="egrave" horiz-adv-x="1280" d="M1073 622Q1045 771 948 868Q820 996 640 996Q460 996 332 868Q236 772 206 622H1073ZM959 241Q985 241 1003 223T1021 178Q1021 152 1005 135Q849 0 640 0Q408 0 244 164Q80 328 80 560Q80
792 244 956Q408 1120 640 1120Q872 1120 1036 956Q1200 792 1200 560Q1200 534 1182 516T1138 498H206Q236 348 332 252Q460 124 640 124Q722 124 792 150T920 227Q937 241 959 241ZM426 1539Q426 1565 444 1583T488 1601Q514 1601 532 1583L784 1331Q799 1314
799 1290Q799 1264 781 1246T737 1227Q713 1227 694 1243L442 1495Q434 1504 430 1515T426 1539Z" />
<glyph unicode="&#xe9;" glyph-name="eacute" horiz-adv-x="1280" d="M1073 622Q1045 771 948 868Q820 996 640 996Q460 996 332 868Q236 772 206 622H1073ZM959 241Q985 241 1003 223T1021 178Q1021 152 1005 135Q849 0 640 0Q408 0 244 164Q80 328 80 560Q80
792 244 956Q408 1120 640 1120Q872 1120 1036 956Q1200 792 1200 560Q1200 534 1182 516T1138 498H206Q236 348 332 252Q460 124 640 124Q722 124 792 150T920 227Q937 241 959 241ZM584 1241Q567 1225 542 1225Q516 1225 498 1243T480 1288Q480 1313 494 1329L746
1581Q764 1599 791 1599Q817 1599 835 1581T853 1537Q853 1525 849 1514T836 1493L584 1241Z" />
<glyph unicode="&#xea;" glyph-name="ecircumflex" horiz-adv-x="1280" d="M1073 622Q1045 771 948 868Q820 996 640 996Q460 996 332 868Q236 772 206 622H1073ZM959 241Q985 241 1003 223T1021 178Q1021 152 1005 135Q849 0 640 0Q408 0 244 164Q80 328 80 560Q80
792 244 956Q408 1120 640 1120Q872 1120 1036 956Q1200 792 1200 560Q1200 534 1182 516T1138 498H206Q236 348 332 252Q460 124 640 124Q722 124 792 150T920 227Q937 241 959 241ZM914 1403Q947 1380 947 1348Q947 1322 929 1304T884 1286Q862 1286 844 1299L635
1438L426 1299Q408 1286 387 1286Q361 1286 343 1304T324 1348Q324 1380 356 1403L604 1568Q618 1576 635 1576Q653 1576 667 1568L914 1403Z" />
<glyph unicode="&#xeb;" glyph-name="edieresis" horiz-adv-x="1280" d="M1073 622Q1045 771 948 868Q820 996 640 996Q460 996 332 868Q236 772 206 622H1073ZM959 241Q985 241 1003 223T1021 178Q1021 152 1005 135Q849 0 640 0Q408 0 244 164Q80 328 80 560Q80
792 244 956Q408 1120 640 1120Q872 1120 1036 956Q1200 792 1200 560Q1200 534 1182 516T1138 498H206Q236 348 332 252Q460 124 640 124Q722 124 792 150T920 227Q937 241 959 241ZM471 1390Q471 1355 447 1331T388 1307Q353 1307 329 1331T305 1390Q305 1424
329 1448T388 1473Q423 1473 447 1449T471 1390ZM969 1390Q969 1355 945 1331T886 1307Q851 1307 827 1331T803 1390Q803 1424 827 1448T886 1473Q920 1473 944 1449T969 1390Z" />
<glyph unicode="&#xec;" glyph-name="igrave" horiz-adv-x="480" d="M170 1058Q170 1084 188 1102T232 1120Q258 1120 276 1102T295 1058V62Q295 36 277 18T232 0Q206 0 188 18T170 62V1058ZM277 1539Q277 1565 295 1583T339 1601Q365 1601 383 1583L635 1331Q650
1314 650 1290Q650 1264 632 1246T588 1227Q564 1227 545 1243L293 1495Q285 1504 281 1515T277 1539Z" />
<glyph unicode="&#xed;" glyph-name="iacute" horiz-adv-x="480" d="M170 1058Q170 1084 188 1102T232 1120Q258 1120 276 1102T295 1058V62Q295 36 277 18T232 0Q206 0 188 18T170 62V1058ZM193 1241Q176 1225 151 1225Q125 1225 107 1243T89 1288Q89 1313 103
1329L355 1581Q373 1599 400 1599Q426 1599 444 1581T462 1537Q462 1525 458 1514T445 1493L193 1241Z" />
<glyph unicode="&#xee;" glyph-name="icircumflex" horiz-adv-x="560" d="M211 1058Q211 1084 229 1102T273 1120Q299 1120 317 1102T336 1058V62Q336 36 318 18T273 0Q247 0 229 18T211 62V1058ZM812 1403Q845 1380 845 1348Q845 1322 827 1304T782 1286Q760
1286 742 1299L533 1438L324 1299Q306 1286 285 1286Q259 1286 241 1304T222 1348Q222 1380 254 1403L502 1568Q516 1576 533 1576Q551 1576 565 1568L812 1403Z" />
<glyph unicode="&#xef;" glyph-name="idieresis" horiz-adv-x="600" d="M230 1058Q230 1084 248 1102T292 1120Q318 1120 336 1102T355 1058V62Q355 36 337 18T292 0Q266 0 248 18T230 62V1058ZM134 1390Q134 1355 110 1331T51 1307Q16 1307 -8 1331T-32 1390Q-32
1424 -8 1448T51 1473Q86 1473 110 1449T134 1390ZM632 1390Q632 1355 608 1331T549 1307Q514 1307 490 1331T466 1390Q466 1424 490 1448T549 1473Q583 1473 607 1449T632 1390Z" />
<glyph unicode="&#xf0;" glyph-name="eth" horiz-adv-x="1280" d="M640 996Q460 996 332 868Q204 740 204 560Q204 380 332 252Q460 124 640 124Q820 124 948 252Q1075 379 1075 560Q1075 741 948 868Q820 996 640 996ZM633 1443L588 1519Q578 1539 578 1556Q578
1582 596 1600T640 1618Q675 1618 693 1590L741 1507L900 1599Q914 1607 931 1607Q948 1607 962 1600T985 1577Q993 1565 993 1545Q993 1529 985 1515T963 1491L804 1398Q1011 1040 1052 968T1133 829Q1165 770 1182 701T1200 560Q1200 328 1036 164Q872 0 640
0Q408 0 244 164Q80 328 80 560Q80 792 244 956Q408 1120 640 1120Q681 1120 729 1113T838 1088L695 1335L532 1240Q518 1232 502 1232Q468 1232 450 1260Q440 1277 440 1294Q440 1310 448 1325T470 1348L633 1443Z" />
<glyph unicode="&#xf1;" glyph-name="ntilde" horiz-adv-x="1200" d="M81 1058Q81 1084 99 1102T143 1120Q169 1120 187 1102T205 1058V942Q389 1120 599 1120Q815 1120 965 968Q1118 816 1118 601V62Q1118 36 1100 18T1055 0Q1029 0 1011 18T993 62V601Q993 766
877 879Q761 996 599 996Q437 996 320 879Q205 765 205 601V62Q205 36 187 18T143 0Q117 0 99 18T81 62V1058ZM646 1358Q559 1280 440 1280Q311 1280 219 1372Q211 1381 207 1392T203 1415Q203 1441 221 1459T265 1478Q290 1478 308 1461Q364 1405 440 1405Q507
1405 556 1445Q644 1524 764 1524Q893 1524 984 1433Q1001 1415 1001 1389Q1001 1363 983 1345T939 1327Q913 1327 895 1344Q841 1400 764 1400Q699 1400 646 1358Z" />
<glyph unicode="&#xf2;" glyph-name="ograve" horiz-adv-x="1280" d="M1200 560Q1200 328 1036 164Q872 0 640 0Q408 0 244 164Q80 328 80 560Q80 792 244 956Q408 1120 640 1120Q872 1120 1036 956Q1200 792 1200 560ZM640 996Q460 996 332 868Q204 740 204 560Q204
380 332 252Q460 124 640 124Q820 124 948 252Q1075 379 1075 560Q1075 741 948 868Q820 996 640 996ZM426 1539Q426 1565 444 1583T488 1601Q514 1601 532 1583L784 1331Q799 1314 799 1290Q799 1264 781 1246T737 1227Q713 1227 694 1243L442 1495Q434 1504 430
1515T426 1539Z" />
<glyph unicode="&#xf3;" glyph-name="oacute" horiz-adv-x="1280" d="M1200 560Q1200 328 1036 164Q872 0 640 0Q408 0 244 164Q80 328 80 560Q80 792 244 956Q408 1120 640 1120Q872 1120 1036 956Q1200 792 1200 560ZM640 996Q460 996 332 868Q204 740 204 560Q204
380 332 252Q460 124 640 124Q820 124 948 252Q1075 379 1075 560Q1075 741 948 868Q820 996 640 996ZM583 1241Q566 1225 541 1225Q515 1225 497 1243T479 1288Q479 1313 493 1329L745 1581Q763 1599 790 1599Q816 1599 834 1581T852 1537Q852 1525 848 1514T835
1493L583 1241Z" />
<glyph unicode="&#xf4;" glyph-name="ocircumflex" horiz-adv-x="1280" d="M1200 560Q1200 328 1036 164Q872 0 640 0Q408 0 244 164Q80 328 80 560Q80 792 244 956Q408 1120 640 1120Q872 1120 1036 956Q1200 792 1200 560ZM640 996Q460 996 332 868Q204 740
204 560Q204 380 332 252Q460 124 640 124Q820 124 948 252Q1075 379 1075 560Q1075 741 948 868Q820 996 640 996ZM914 1403Q947 1380 947 1348Q947 1322 929 1304T884 1286Q862 1286 844 1299L635 1438L426 1299Q408 1286 387 1286Q361 1286 343 1304T324 1348Q324
1380 356 1403L604 1568Q618 1576 635 1576Q653 1576 667 1568L914 1403Z" />
<glyph unicode="&#xf5;" glyph-name="otilde" horiz-adv-x="1280" d="M1200 560Q1200 328 1036 164Q872 0 640 0Q408 0 244 164Q80 328 80 560Q80 792 244 956Q408 1120 640 1120Q872 1120 1036 956Q1200 792 1200 560ZM640 996Q460 996 332 868Q204 740 204 560Q204
380 332 252Q460 124 640 124Q820 124 948 252Q1075 379 1075 560Q1075 741 948 868Q820 996 640 996ZM681 1358Q594 1280 475 1280Q346 1280 254 1372Q246 1381 242 1392T238 1415Q238 1441 256 1459T300 1478Q325 1478 343 1461Q399 1405 475 1405Q542 1405 591
1445Q679 1524 799 1524Q928 1524 1019 1433Q1036 1415 1036 1389Q1036 1363 1018 1345T974 1327Q948 1327 930 1344Q876 1400 799 1400Q734 1400 681 1358Z" />
<glyph unicode="&#xf6;" glyph-name="odieresis" horiz-adv-x="1280" d="M1200 560Q1200 328 1036 164Q872 0 640 0Q408 0 244 164Q80 328 80 560Q80 792 244 956Q408 1120 640 1120Q872 1120 1036 956Q1200 792 1200 560ZM640 996Q460 996 332 868Q204 740 204
560Q204 380 332 252Q460 124 640 124Q820 124 948 252Q1075 379 1075 560Q1075 741 948 868Q820 996 640 996ZM471 1390Q471 1355 447 1331T388 1307Q353 1307 329 1331T305 1390Q305 1424 329 1448T388 1473Q423 1473 447 1449T471 1390ZM969 1390Q969 1355 945
1331T886 1307Q851 1307 827 1331T803 1390Q803 1424 827 1448T886 1473Q920 1473 944 1449T969 1390Z" />
<glyph unicode="&#xf7;" glyph-name="divide" horiz-adv-x="960" d="M560 1037Q560 1002 536 978T477 954Q442 954 418 978T394 1037Q394 1072 418 1096T477 1120Q512 1120 536 1096T560 1037ZM145 664Q119 664 101 682T83 726Q83 752 101 770T145 788H809Q835
788 853 770T871 726Q871 700 853 682T809 664H145ZM560 415Q560 380 536 356T477 332Q442 332 418 356T394 415Q394 449 418 473T477 498Q512 498 536 474T560 415Z" />
<glyph unicode="&#xf8;" glyph-name="oslash" horiz-adv-x="1280" d="M901 909Q773 996 640 996Q460 996 332 868Q204 740 204 560Q204 428 289 299L901 909ZM379 209Q508 124 640 124Q820 124 948 252Q1075 379 1075 560Q1075 692 990 821L379 209ZM1091 1099Q1110
1120 1138 1120Q1164 1120 1182 1102T1200 1058Q1200 1032 1183 1014L1079 909Q1200 752 1200 560Q1200 328 1036 164Q872 0 640 0Q447 0 290 121L187 18Q168 0 142 0Q116 0 98 18T80 62Q80 88 96 106L201 211Q80 366 80 560Q80 792 244 956Q408 1120 640 1120Q833
1120 990 999L1091 1099Z" />
<glyph unicode="&#xf9;" glyph-name="ugrave" horiz-adv-x="1200" d="M1118 62Q1118 36 1100 18T1055 0Q1029 0 1011 18T993 62V178Q809 0 599 0Q386 0 232 151Q81 303 81 519V1058Q81 1084 99 1102T143 1120Q169 1120 187 1102T205 1058V519Q205 355 320 240Q439
124 599 124Q761 124 877 240Q993 355 993 519V1058Q993 1084 1011 1102T1055 1120Q1081 1120 1099 1102T1118 1058V62ZM419 1539Q419 1565 437 1583T481 1601Q507 1601 525 1583L777 1331Q792 1314 792 1290Q792 1264 774 1246T730 1227Q706 1227 687 1243L435
1495Q427 1504 423 1515T419 1539Z" />
<glyph unicode="&#xfa;" glyph-name="uacute" horiz-adv-x="1200" d="M1118 62Q1118 36 1100 18T1055 0Q1029 0 1011 18T993 62V178Q809 0 599 0Q386 0 232 151Q81 303 81 519V1058Q81 1084 99 1102T143 1120Q169 1120 187 1102T205 1058V519Q205 355 320 240Q439
124 599 124Q761 124 877 240Q993 355 993 519V1058Q993 1084 1011 1102T1055 1120Q1081 1120 1099 1102T1118 1058V62ZM511 1241Q494 1225 469 1225Q443 1225 425 1243T407 1288Q407 1313 421 1329L673 1581Q691 1599 718 1599Q744 1599 762 1581T780 1537Q780
1525 776 1514T763 1493L511 1241Z" />
<glyph unicode="&#xfb;" glyph-name="ucircumflex" horiz-adv-x="1200" d="M1118 62Q1118 36 1100 18T1055 0Q1029 0 1011 18T993 62V178Q809 0 599 0Q386 0 232 151Q81 303 81 519V1058Q81 1084 99 1102T143 1120Q169 1120 187 1102T205 1058V519Q205 355 320
240Q439 124 599 124Q761 124 877 240Q993 355 993 519V1058Q993 1084 1011 1102T1055 1120Q1081 1120 1099 1102T1118 1058V62ZM874 1403Q907 1380 907 1348Q907 1322 889 1304T844 1286Q822 1286 804 1299L595 1438L386 1299Q368 1286 347 1286Q321 1286 303
1304T284 1348Q284 1380 316 1403L564 1568Q578 1576 595 1576Q613 1576 627 1568L874 1403Z" />
<glyph unicode="&#xfc;" glyph-name="udieresis" horiz-adv-x="1200" d="M1118 62Q1118 36 1100 18T1055 0Q1029 0 1011 18T993 62V178Q809 0 599 0Q386 0 232 151Q81 303 81 519V1058Q81 1084 99 1102T143 1120Q169 1120 187 1102T205 1058V519Q205 355 320 240Q439
124 599 124Q761 124 877 240Q993 355 993 519V1058Q993 1084 1011 1102T1055 1120Q1081 1120 1099 1102T1118 1058V62ZM431 1390Q431 1355 407 1331T348 1307Q313 1307 289 1331T265 1390Q265 1424 289 1448T348 1473Q383 1473 407 1449T431 1390ZM929 1390Q929
1355 905 1331T846 1307Q811 1307 787 1331T763 1390Q763 1424 787 1448T846 1473Q880 1473 904 1449T929 1390Z" />
<glyph unicode="&#xfd;" glyph-name="yacute" horiz-adv-x="1120" d="M490 63L85 1033Q81 1046 81 1058Q81 1084 99 1102T144 1120Q170 1120 188 1102Q197 1093 203 1077L558 227L913 1077Q919 1093 930 1104Q946 1120 973 1120Q999 1120 1017 1102T1036 1058Q1036
1048 1032 1036L416 -438Q411 -452 402 -461Q383 -480 357 -480Q331 -480 313 -462T295 -418Q295 -405 299 -396L490 63ZM538 1241Q521 1225 496 1225Q470 1225 452 1243T434 1288Q434 1313 448 1329L700 1581Q718 1599 745 1599Q771 1599 789 1581T807 1537Q807
1525 803 1514T790 1493L538 1241Z" />
<glyph unicode="&#xfe;" glyph-name="thorn" horiz-adv-x="1280" d="M204 562Q204 382 332 254Q459 127 640 127Q821 127 948 254Q1075 381 1075 562Q1075 743 948 870Q820 998 640 998Q460 998 332 870Q204 742 204 562ZM204 919Q407 1122 640 1122Q872 1122
1036 958Q1200 794 1200 562Q1200 330 1036 166Q872 2 640 2Q407 2 204 205V-418Q204 -444 186 -462T142 -480Q116 -480 98 -462T80 -418V1538Q80 1564 98 1582T142 1600Q168 1600 186 1582T204 1538V919Z" />
<glyph unicode="&#xff;" glyph-name="ydieresis" horiz-adv-x="1120" d="M490 63L85 1033Q81 1046 81 1058Q81 1084 99 1102T144 1120Q170 1120 188 1102Q197 1093 203 1077L558 227L913 1077Q919 1093 930 1104Q946 1120 973 1120Q999 1120 1017 1102T1036 1058Q1036
1048 1032 1036L416 -438Q411 -452 402 -461Q383 -480 357 -480Q331 -480 313 -462T295 -418Q295 -405 299 -396L490 63ZM391 1390Q391 1355 367 1331T308 1307Q273 1307 249 1331T225 1390Q225 1424 249 1448T308 1473Q343 1473 367 1449T391 1390ZM889 1390Q889
1355 865 1331T806 1307Q771 1307 747 1331T723 1390Q723 1424 747 1448T806 1473Q840 1473 864 1449T889 1390Z" />
<glyph unicode="&#x2013;" glyph-name="endash" horiz-adv-x="800" d="M-19 498Q-45 498 -63 516T-82 560Q-82 586 -64 604T-19 622H810Q836 622 854 604T872 560Q872 534 854 516T810 498H-19Z" />
<glyph unicode="&#x2014;" glyph-name="emdash" horiz-adv-x="1920" d="M-30 498Q-56 498 -74 516T-92 560Q-92 586 -74 604T-30 622H1961Q1987 622 2005 604T2024 560Q2024 534 2006 516T1961 498H-30Z" />
<glyph unicode="&#x2018;" glyph-name="quoteleft" horiz-adv-x="480" d="M350 1041Q350 1006 326 982T267 958Q216 958 191 1007Q129 1116 129 1233Q129 1318 169 1410T281 1590Q292 1601 309 1601Q326 1601 338 1589T350 1560Q350 1552 346 1542Q320 1477 306
1416T292 1294Q292 1236 305 1181T343 1074Q350 1058 350 1041Z" />
<glyph unicode="&#x2019;" glyph-name="quoteright" horiz-adv-x="480" d="M129 1519Q129 1554 153 1578T212 1602Q263 1602 288 1553Q350 1444 350 1327Q350 1242 310 1150T198 970Q187 959 170 959Q153 959 141 971T129 1000Q129 1008 133 1018Q159 1083 173
1144T187 1266Q187 1324 174 1379T136 1486Q129 1502 129 1519Z" />
<glyph unicode="&#x201a;" glyph-name="quotesinglbase" horiz-adv-x="480" d="M129 237Q129 272 153 296T212 320Q263 320 288 271Q350 162 350 45Q350 -40 310 -132T198 -312Q187 -323 170 -323Q153 -323 141 -311T129 -282Q129 -274 133 -264Q159 -199 173
-138T187 -16Q187 42 174 97T136 204Q129 220 129 237Z" />
<glyph unicode="&#x201c;" glyph-name="quotedblleft" horiz-adv-x="760" d="M301 1041Q301 1006 277 982T218 958Q167 958 142 1007Q80 1116 80 1233Q80 1318 120 1410T232 1590Q243 1601 260 1601Q277 1601 289 1589T301 1560Q301 1552 297 1542Q271 1477 257
1416T243 1294Q243 1236 256 1181T294 1074Q301 1058 301 1041ZM659 1041Q659 1006 635 982T576 958Q525 958 500 1007Q438 1116 438 1233Q438 1318 478 1410T590 1590Q601 1601 618 1601Q635 1601 647 1589T659 1560Q659 1552 655 1542Q629 1477 615 1416T601
1294Q601 1236 614 1181T652 1074Q659 1058 659 1041Z" />
<glyph unicode="&#x201d;" glyph-name="quotedblright" horiz-adv-x="760" d="M438 1518Q438 1553 462 1577T521 1601Q572 1601 597 1552Q659 1443 659 1326Q659 1241 619 1149T507 969Q496 958 479 958Q462 958 450 970T438 999Q438 1007 442 1017Q468 1082 482
1143T496 1265Q496 1323 483 1378T445 1485Q438 1501 438 1518ZM80 1518Q80 1553 104 1577T163 1601Q214 1601 239 1552Q301 1443 301 1326Q301 1241 261 1149T149 969Q138 958 121 958Q104 958 92 970T80 999Q80 1007 84 1017Q110 1082 124 1143T138 1265Q138
1323 125 1378T87 1485Q80 1501 80 1518Z" />
<glyph unicode="&#x201e;" glyph-name="quotedblbase" horiz-adv-x="760" d="M438 237Q438 272 462 296T521 320Q572 320 597 271Q659 162 659 45Q659 -40 619 -132T507 -312Q496 -323 479 -323Q462 -323 450 -311T438 -282Q438 -274 442 -264Q468 -199 482 -138T496
-16Q496 42 483 97T445 204Q438 220 438 237ZM80 237Q80 272 104 296T163 320Q214 320 239 271Q301 162 301 45Q301 -40 261 -132T149 -312Q138 -323 121 -323Q104 -323 92 -311T80 -282Q80 -274 84 -264Q110 -199 124 -138T138 -16Q138 42 125 97T87 204Q80 220
80 237Z" />
<glyph unicode="&#x2022;" glyph-name="bullet" horiz-adv-x="800" d="M624 809Q624 715 556 647Q490 581 395 581Q300 581 234 647Q167 714 167 809Q167 903 234 970Q301 1037 395 1037Q489 1037 556 970Q624 902 624 809Z" />
<glyph unicode="&#x2039;" glyph-name="guilsinglleft" horiz-adv-x="560" d="M336 1080Q343 1094 350 1101Q368 1119 394 1119Q420 1119 438 1101T456 1057Q456 1042 451 1031L215 560L451 88Q456 77 456 62Q456 36 438 18T394 0Q369 0 354 14Q345 23 336 38L93
524Q83 543 83 559Q83 575 91 590L336 1080Z" />
<glyph unicode="&#x203a;" glyph-name="guilsinglright" horiz-adv-x="560" d="M448 590Q456 575 456 559Q456 543 446 524L203 38Q194 23 185 14Q170 0 145 0Q119 0 101 18T83 62Q83 77 88 88L324 560L88 1031Q83 1042 83 1057Q83 1083 101 1101T145 1119Q171
1119 189 1101Q196 1094 203 1080L448 590Z" />
</font>
</defs>
</svg>
